<?xml version="1.0" encoding="UTF-8"?>
<svg xmlns="http://www.w3.org/2000/svg" xmlns:xlink="http://www.w3.org/1999/xlink" width="110pt" height="110pt" viewBox="0 0 110 110" version="1.1">
<g id="surface1">
<path style=" stroke:none;fill-rule:nonzero;fill:rgb(33.72549%,23.921569%,48.627451%);fill-opacity:1;" d="M 110 91.667969 C 110 101.75 101.75 110 91.667969 110 L 18.332031 110 C 8.25 110 0 101.75 0 91.667969 L 0 18.332031 C 0 8.25 8.25 0 18.332031 0 L 91.667969 0 C 101.75 0 110 8.25 110 18.332031 Z M 110 91.667969 "/>
<path style=" stroke:none;fill-rule:nonzero;fill:rgb(100%,100%,100%);fill-opacity:1;" d="M 29.890625 23.90625 L 61.074219 23.90625 C 66.828125 23.90625 71.445312 25.21875 74.914062 27.859375 C 78.382812 30.5 80.128906 34.472656 80.128906 39.8125 C 80.128906 43.046875 79.335938 45.816406 77.753906 48.117188 C 76.171875 50.417969 73.910156 52.214844 70.960938 53.472656 L 70.960938 53.652344 C 74.914062 54.496094 77.917969 56.367188 79.949219 59.261719 C 81.980469 62.171875 83.003906 65.800781 83.003906 70.1875 C 83.003906 72.703125 82.554688 75.058594 81.65625 77.234375 C 80.757812 79.425781 79.355469 81.3125 77.429688 82.894531 C 75.507812 84.476562 73.0625 85.734375 70.0625 86.671875 C 67.058594 87.605469 63.5 88.070312 59.367188 88.070312 L 29.890625 88.070312 Z M 41.125 50.777344 L 59.457031 50.777344 C 62.152344 50.777344 64.398438 50.019531 66.199219 48.476562 C 67.996094 46.929688 68.894531 44.738281 68.894531 41.859375 C 68.894531 38.625 68.085938 36.34375 66.46875 35.03125 C 64.851562 33.71875 62.511719 33.054688 59.457031 33.054688 L 41.125 33.054688 Z M 41.125 78.90625 L 60.984375 78.90625 C 64.398438 78.90625 67.058594 78.023438 68.929688 76.246094 C 70.816406 74.484375 71.769531 71.96875 71.769531 68.730469 C 71.769531 65.550781 70.835938 63.125 68.929688 61.398438 C 67.023438 59.671875 64.398438 58.847656 60.984375 58.847656 L 41.125 58.847656 Z M 41.125 78.90625 "/>
</g>
</svg>
