<?xml version="1.0" encoding="UTF-8"?>
<svg xmlns="http://www.w3.org/2000/svg" xmlns:xlink="http://www.w3.org/1999/xlink" width="110pt" height="46pt" viewBox="0 0 110 46" version="1.1">
<g id="surface1">
<path style=" stroke:none;fill-rule:nonzero;fill:rgb(25.490196%,18.823529%,0%);fill-opacity:1;" d="M 65.921875 15.65625 C 63.511719 15.65625 61.714844 16.84375 61.714844 19.695312 C 61.714844 21.847656 62.898438 23.339844 65.792969 23.339844 C 68.246094 23.339844 69.910156 21.890625 69.910156 19.609375 C 69.910156 17.019531 68.421875 15.65625 65.921875 15.65625 Z M 61.101562 35.808594 C 60.527344 36.507812 59.960938 37.253906 59.960938 38.132812 C 59.960938 39.886719 62.195312 40.414062 65.261719 40.414062 C 67.804688 40.414062 71.269531 40.238281 71.269531 37.871094 C 71.269531 36.460938 69.601562 36.375 67.496094 36.242188 Z M 74.074219 15.789062 C 74.859375 16.800781 75.695312 18.203125 75.695312 20.222656 C 75.695312 25.09375 71.882812 27.949219 66.359375 27.949219 C 64.957031 27.949219 63.683594 27.773438 62.898438 27.554688 L 61.449219 29.878906 L 65.746094 30.144531 C 73.328125 30.625 77.796875 30.847656 77.796875 36.683594 C 77.796875 41.730469 73.371094 44.582031 65.746094 44.582031 C 57.8125 44.582031 54.789062 42.5625 54.789062 39.097656 C 54.789062 37.121094 55.664062 36.070312 57.199219 34.617188 C 55.75 34.007812 55.269531 32.910156 55.269531 31.722656 C 55.269531 30.757812 55.75 29.878906 56.542969 29.046875 C 57.332031 28.210938 58.207031 27.378906 59.257812 26.410156 C 57.113281 25.359375 55.488281 23.074219 55.488281 19.828125 C 55.488281 14.78125 58.820312 11.3125 65.527344 11.3125 C 67.410156 11.3125 68.550781 11.488281 69.558594 11.753906 L 78.105469 11.753906 L 78.105469 15.484375 L 74.074219 15.789062 "/>
<path style=" stroke:none;fill-rule:nonzero;fill:rgb(25.490196%,18.823529%,0%);fill-opacity:1;" d="M 85.820312 7.8125 C 83.324219 7.8125 81.875 6.363281 81.875 3.859375 C 81.875 1.363281 83.324219 0 85.820312 0 C 88.363281 0 89.808594 1.363281 89.808594 3.859375 C 89.808594 6.363281 88.363281 7.8125 85.820312 7.8125 Z M 80.167969 34.191406 L 80.167969 30.726562 L 82.402344 30.417969 C 83.015625 30.328125 83.105469 30.199219 83.105469 29.539062 L 83.105469 16.636719 C 83.105469 16.152344 82.972656 15.84375 82.53125 15.714844 L 80.167969 14.878906 L 80.648438 11.324219 L 89.722656 11.324219 L 89.722656 29.539062 C 89.722656 30.242188 89.765625 30.332031 90.421875 30.417969 L 92.660156 30.726562 L 92.660156 34.191406 L 80.167969 34.191406 "/>
<path style=" stroke:none;fill-rule:nonzero;fill:rgb(25.490196%,18.823529%,0%);fill-opacity:1;" d="M 109.992188 32.488281 C 108.105469 33.410156 105.34375 34.246094 102.84375 34.246094 C 97.628906 34.246094 95.65625 32.140625 95.65625 27.179688 L 95.65625 15.679688 C 95.65625 15.417969 95.65625 15.238281 95.304688 15.238281 L 92.238281 15.238281 L 92.238281 11.332031 C 96.097656 10.894531 97.628906 8.960938 98.113281 4.175781 L 102.277344 4.175781 L 102.277344 10.414062 C 102.277344 10.71875 102.277344 10.851562 102.628906 10.851562 L 108.808594 10.851562 L 108.808594 15.238281 L 102.277344 15.238281 L 102.277344 25.730469 C 102.277344 28.320312 102.890625 29.328125 105.257812 29.328125 C 106.484375 29.328125 107.753906 29.023438 108.808594 28.625 L 109.992188 32.492188 "/>
<path style=" stroke:none;fill-rule:nonzero;fill:rgb(94.117647%,31.764706%,20%);fill-opacity:1;" d="M 45.046875 20.972656 L 25.007812 0.902344 C 23.851562 -0.253906 21.980469 -0.253906 20.828125 0.902344 L 16.664062 5.070312 L 21.945312 10.355469 C 23.171875 9.941406 24.578125 10.21875 25.554688 11.199219 C 26.539062 12.183594 26.8125 13.605469 26.390625 14.839844 L 31.476562 19.933594 C 32.707031 19.507812 34.128906 19.785156 35.109375 20.769531 C 36.484375 22.144531 36.484375 24.375 35.109375 25.75 C 33.738281 27.128906 31.511719 27.128906 30.136719 25.75 C 29.101562 24.714844 28.847656 23.195312 29.371094 21.917969 L 24.625 17.167969 L 24.625 29.671875 C 24.960938 29.839844 25.277344 30.058594 25.554688 30.339844 C 26.929688 31.714844 26.929688 33.941406 25.554688 35.320312 C 24.179688 36.695312 21.953125 36.695312 20.582031 35.320312 C 19.207031 33.941406 19.207031 31.714844 20.582031 30.339844 C 20.921875 30 21.3125 29.742188 21.734375 29.570312 L 21.734375 16.949219 C 21.3125 16.777344 20.921875 16.523438 20.582031 16.179688 C 19.539062 15.140625 19.289062 13.609375 19.824219 12.332031 L 14.621094 7.117188 L 0.878906 20.878906 C -0.277344 22.035156 -0.277344 23.910156 0.878906 25.066406 L 20.917969 45.132812 C 22.074219 46.289062 23.945312 46.289062 25.101562 45.132812 L 45.046875 25.160156 C 46.203125 24.003906 46.203125 22.128906 45.046875 20.972656 "/>
</g>
</svg>
