<?xml version="1.0" encoding="UTF-8"?>
<svg xmlns="http://www.w3.org/2000/svg" xmlns:xlink="http://www.w3.org/1999/xlink" width="50pt" height="110pt" viewBox="0 0 50 110" version="1.1">
<g id="surface1">
<path style=" stroke:none;fill-rule:evenodd;fill:rgb(85.490196%,27.45098%,28.235294%);fill-opacity:1;" d="M 24.777344 86.617188 C 18.328125 86.617188 13.34375 85.65625 10.945312 85.078125 C 9.308594 84.6875 7.992188 84.28125 6.992188 83.863281 L 10.1875 89.296875 L 11.4375 106.269531 C 11.4375 108.171875 17.515625 109.714844 25.011719 109.714844 C 32.507812 109.714844 38.582031 108.171875 38.582031 106.269531 L 39.574219 89.109375 L 42.597656 83.847656 C 41.59375 84.269531 40.265625 84.683594 38.605469 85.078125 C 36.210938 85.65625 31.226562 86.617188 24.777344 86.617188 Z M 42.703125 31.382812 C 37.96875 32.039062 31.683594 32.402344 25.011719 32.402344 C 18.335938 32.402344 12.054688 32.039062 7.320312 31.382812 C 4.976562 31.058594 3.121094 30.671875 1.808594 30.242188 C 1.492188 30.136719 0.960938 29.960938 0.453125 29.683594 L 3.382812 56.535156 C 3.519531 56.074219 3.671875 55.609375 3.839844 55.148438 C 4.183594 54.207031 4.582031 53.285156 5.035156 52.382812 C 5.488281 51.484375 5.980469 50.632812 6.511719 49.832031 C 7.042969 49.03125 7.609375 48.292969 8.210938 47.617188 C 8.8125 46.941406 9.425781 46.363281 10.058594 45.875 C 10.691406 45.390625 11.332031 45.011719 11.976562 44.738281 C 12.621094 44.464844 13.257812 44.328125 13.890625 44.328125 C 14.617188 44.328125 15.324219 44.527344 16.003906 44.921875 C 16.683594 45.316406 17.320312 45.960938 17.914062 46.847656 C 18.046875 47.042969 18.132812 47.246094 18.171875 47.445312 C 18.207031 47.648438 18.222656 47.839844 18.222656 48.019531 C 18.222656 48.445312 18.121094 48.78125 17.917969 49.023438 C 17.714844 49.269531 17.472656 49.390625 17.191406 49.390625 C 16.933594 49.390625 16.699219 49.257812 16.476562 48.988281 C 16.257812 48.71875 16.011719 48.335938 15.738281 47.835938 C 15.484375 47.382812 15.199219 47.054688 14.890625 46.851562 C 14.585938 46.648438 14.25 46.546875 13.890625 46.546875 C 13.328125 46.546875 12.730469 46.78125 12.09375 47.242188 C 11.457031 47.703125 10.828125 48.316406 10.203125 49.074219 C 9.578125 49.832031 8.980469 50.699219 8.410156 51.675781 C 7.835938 52.652344 7.332031 53.652344 6.890625 54.675781 C 6.449219 55.699219 6.101562 56.710938 5.839844 57.703125 C 5.578125 58.699219 5.449219 59.59375 5.449219 60.386719 C 5.449219 60.648438 5.46875 60.921875 5.503906 61.199219 C 5.539062 61.476562 5.609375 61.730469 5.707031 61.957031 C 5.808594 62.183594 5.945312 62.367188 6.117188 62.515625 C 6.289062 62.660156 6.507812 62.734375 6.769531 62.734375 C 7.066406 62.734375 7.402344 62.632812 7.777344 62.4375 C 8.15625 62.238281 8.546875 61.980469 8.949219 61.660156 C 9.351562 61.335938 9.757812 60.976562 10.167969 60.570312 C 10.578125 60.164062 10.957031 59.753906 11.308594 59.339844 C 11.660156 58.921875 11.972656 58.523438 12.246094 58.144531 C 12.515625 57.761719 12.722656 57.429688 12.859375 57.144531 L 13.972656 53.820312 C 14.109375 53.460938 14.289062 53.207031 14.507812 53.058594 C 14.726562 52.90625 14.953125 52.832031 15.1875 52.832031 C 15.296875 52.832031 15.410156 52.847656 15.523438 52.886719 C 15.636719 52.925781 15.734375 52.984375 15.824219 53.0625 C 15.910156 53.144531 15.980469 53.246094 16.03125 53.375 C 16.085938 53.503906 16.109375 53.652344 16.109375 53.820312 C 16.109375 54.273438 16.070312 54.699219 15.992188 55.09375 C 15.910156 55.492188 15.808594 55.875 15.683594 56.253906 C 15.5625 56.632812 15.421875 57.011719 15.269531 57.394531 C 15.117188 57.773438 14.96875 58.171875 14.828125 58.589844 C 14.792969 58.636719 14.738281 58.785156 14.652344 59.035156 C 14.566406 59.285156 14.464844 59.597656 14.347656 59.976562 C 14.226562 60.351562 14.097656 60.773438 13.957031 61.242188 C 13.816406 61.707031 13.671875 62.183594 13.523438 62.667969 C 13.375 63.15625 13.234375 63.632812 13.097656 64.097656 C 12.960938 64.566406 12.839844 64.988281 12.730469 65.367188 C 12.625 65.742188 12.535156 66.058594 12.460938 66.3125 C 12.390625 66.566406 12.34375 66.71875 12.328125 66.765625 C 12.289062 66.917969 12.226562 67.085938 12.136719 67.269531 C 12.050781 67.453125 11.945312 67.625 11.824219 67.792969 C 11.703125 67.957031 11.574219 68.09375 11.429688 68.203125 C 11.285156 68.308594 11.136719 68.363281 10.984375 68.363281 C 10.726562 68.363281 10.542969 68.28125 10.425781 68.109375 C 10.308594 67.941406 10.253906 67.628906 10.253906 67.175781 L 10.253906 66.976562 C 10.253906 66.910156 10.257812 66.839844 10.265625 66.765625 C 10.273438 66.613281 10.332031 66.332031 10.445312 65.917969 C 10.554688 65.5 10.691406 65.03125 10.847656 64.507812 C 11.003906 63.984375 11.171875 63.441406 11.351562 62.882812 C 11.53125 62.320312 11.691406 61.820312 11.835938 61.375 C 11.414062 61.847656 10.953125 62.316406 10.457031 62.785156 C 9.960938 63.25 9.453125 63.667969 8.929688 64.042969 C 8.410156 64.414062 7.886719 64.71875 7.359375 64.953125 C 6.832031 65.191406 6.320312 65.308594 5.832031 65.308594 C 5.273438 65.308594 4.792969 65.1875 4.386719 64.941406 C 4.3125 64.894531 4.246094 64.847656 4.175781 64.796875 L 5.808594 81.820312 C 6.234375 82.878906 14.230469 85.480469 24.777344 85.480469 C 35.328125 85.480469 43.328125 82.875 43.746094 81.816406 L 46.089844 61.578125 C 45.898438 61.757812 45.707031 61.929688 45.527344 62.097656 C 44.855469 62.71875 44.21875 63.253906 43.625 63.703125 C 43.027344 64.152344 42.445312 64.496094 41.878906 64.742188 C 41.308594 64.988281 40.699219 65.109375 40.050781 65.109375 C 39.445312 65.109375 38.972656 64.976562 38.640625 64.714844 C 38.308594 64.449219 38.144531 64.085938 38.144531 63.625 L 38.144531 63.519531 C 38.144531 63.484375 38.148438 63.445312 38.15625 63.398438 C 38.1875 63.117188 38.3125 62.789062 38.527344 62.421875 C 38.742188 62.054688 39.003906 61.671875 39.308594 61.277344 C 39.613281 60.878906 39.9375 60.480469 40.28125 60.074219 C 40.625 59.667969 40.941406 59.285156 41.234375 58.921875 C 41.527344 58.558594 41.769531 58.226562 41.960938 57.921875 C 42.152344 57.621094 42.25 57.375 42.25 57.1875 C 42.25 57.074219 42.210938 56.984375 42.128906 56.917969 C 42.050781 56.851562 41.917969 56.820312 41.734375 56.820312 C 41.414062 56.820312 41.082031 56.902344 40.742188 57.066406 C 40.402344 57.230469 40.066406 57.453125 39.734375 57.730469 C 39.402344 58.011719 39.078125 58.328125 38.761719 58.6875 C 38.445312 59.046875 38.148438 59.417969 37.871094 59.804688 C 37.597656 60.191406 37.34375 60.582031 37.117188 60.972656 C 36.886719 61.363281 36.695312 61.722656 36.535156 62.054688 C 36.484375 62.160156 36.417969 62.304688 36.328125 62.492188 C 36.242188 62.679688 36.144531 62.894531 36.042969 63.128906 C 35.9375 63.367188 35.828125 63.609375 35.710938 63.859375 C 35.59375 64.109375 35.488281 64.34375 35.394531 64.566406 C 35.296875 64.789062 35.210938 64.984375 35.136719 65.160156 C 35.058594 65.335938 35.003906 65.453125 34.972656 65.519531 C 34.933594 65.605469 34.867188 65.765625 34.773438 66 C 34.683594 66.238281 34.578125 66.511719 34.457031 66.828125 C 34.335938 67.144531 34.210938 67.476562 34.078125 67.828125 C 33.945312 68.175781 33.824219 68.503906 33.707031 68.816406 C 33.589844 69.128906 33.488281 69.402344 33.402344 69.636719 C 33.3125 69.871094 33.257812 70.035156 33.230469 70.117188 C 33.152344 70.363281 33.058594 70.59375 32.949219 70.8125 C 32.84375 71.027344 32.71875 71.21875 32.578125 71.386719 C 32.4375 71.550781 32.277344 71.683594 32.097656 71.78125 C 31.917969 71.878906 31.714844 71.929688 31.492188 71.929688 C 31.203125 71.929688 30.964844 71.859375 30.777344 71.722656 C 30.589844 71.585938 30.496094 71.324219 30.496094 70.9375 C 30.496094 70.75 30.519531 70.558594 30.566406 70.359375 C 30.613281 70.160156 30.675781 69.964844 30.746094 69.773438 C 30.820312 69.578125 30.894531 69.390625 30.96875 69.207031 C 31.046875 69.023438 31.117188 68.84375 31.179688 68.675781 C 31.613281 67.734375 32.050781 66.785156 32.5 65.839844 C 32.949219 64.890625 33.378906 63.953125 33.789062 63.023438 C 33.875 62.828125 33.957031 62.640625 34.039062 62.449219 C 34.015625 62.472656 33.988281 62.496094 33.964844 62.519531 C 33.445312 63.019531 32.925781 63.460938 32.410156 63.84375 C 31.894531 64.226562 31.382812 64.53125 30.875 64.757812 C 30.363281 64.984375 29.871094 65.097656 29.390625 65.097656 C 29.0625 65.097656 28.789062 65.042969 28.566406 64.941406 C 28.347656 64.835938 28.171875 64.695312 28.039062 64.515625 C 27.90625 64.335938 27.8125 64.125 27.757812 63.878906 C 27.738281 63.796875 27.726562 63.707031 27.714844 63.621094 C 27.574219 63.730469 27.433594 63.835938 27.289062 63.9375 C 26.792969 64.285156 26.304688 64.566406 25.824219 64.777344 C 25.34375 64.988281 24.910156 65.097656 24.527344 65.097656 C 24.144531 65.097656 23.832031 64.96875 23.589844 64.714844 C 23.351562 64.460938 23.230469 64.027344 23.230469 63.414062 C 23.230469 62.980469 23.296875 62.472656 23.421875 61.898438 C 23.214844 62.265625 22.953125 62.640625 22.644531 63.015625 C 22.332031 63.394531 21.972656 63.738281 21.574219 64.050781 C 21.171875 64.359375 20.726562 64.613281 20.230469 64.804688 C 19.734375 65 19.191406 65.097656 18.609375 65.097656 C 18.34375 65.097656 18.089844 65.0625 17.847656 64.996094 C 17.601562 64.929688 17.386719 64.816406 17.203125 64.65625 C 17.019531 64.496094 16.871094 64.28125 16.757812 64.015625 C 16.648438 63.746094 16.589844 63.40625 16.589844 63.003906 C 16.589844 62.992188 16.609375 62.847656 16.640625 62.570312 C 16.671875 62.292969 16.773438 61.855469 16.945312 61.253906 C 17.117188 60.65625 17.382812 59.878906 17.742188 58.925781 C 18.105469 57.976562 18.613281 56.820312 19.269531 55.460938 C 19.4375 55.101562 19.632812 54.847656 19.851562 54.691406 C 20.070312 54.535156 20.308594 54.457031 20.566406 54.457031 C 20.675781 54.457031 20.792969 54.472656 20.914062 54.507812 C 21.035156 54.539062 21.144531 54.589844 21.25 54.664062 C 21.355469 54.734375 21.4375 54.824219 21.503906 54.929688 C 21.566406 55.039062 21.597656 55.164062 21.597656 55.304688 C 21.597656 55.398438 21.585938 55.492188 21.5625 55.574219 C 21.523438 55.734375 21.4375 55.945312 21.304688 56.203125 C 21.171875 56.464844 21.019531 56.761719 20.839844 57.09375 C 20.664062 57.429688 20.480469 57.792969 20.285156 58.179688 C 20.085938 58.566406 19.90625 58.964844 19.738281 59.378906 C 19.570312 59.796875 19.425781 60.21875 19.304688 60.648438 C 19.183594 61.074219 19.117188 61.492188 19.101562 61.898438 C 19.101562 62.070312 19.140625 62.222656 19.222656 62.367188 C 19.300781 62.507812 19.433594 62.578125 19.617188 62.578125 C 20.136719 62.578125 20.632812 62.40625 21.105469 62.070312 C 21.578125 61.730469 22.015625 61.308594 22.414062 60.800781 C 22.816406 60.296875 23.175781 59.753906 23.5 59.175781 C 23.824219 58.59375 24.09375 58.066406 24.3125 57.582031 C 24.464844 57.261719 24.597656 56.917969 24.714844 56.550781 C 24.828125 56.183594 24.957031 55.84375 25.09375 55.53125 C 25.226562 55.222656 25.382812 54.960938 25.558594 54.753906 C 25.734375 54.546875 25.957031 54.441406 26.21875 54.441406 C 26.507812 54.441406 26.738281 54.550781 26.90625 54.769531 C 27.074219 54.984375 27.15625 55.246094 27.15625 55.546875 C 27.15625 55.714844 27.101562 55.949219 26.996094 56.246094 C 26.886719 56.542969 26.75 56.882812 26.585938 57.265625 C 26.421875 57.648438 26.246094 58.054688 26.050781 58.488281 C 25.859375 58.921875 25.683594 59.363281 25.519531 59.8125 C 25.355469 60.261719 25.21875 60.699219 25.109375 61.128906 C 25 61.558594 24.949219 61.957031 24.949219 62.324219 C 24.949219 62.664062 25.125 62.832031 25.476562 62.832031 C 25.722656 62.832031 26.03125 62.746094 26.402344 62.578125 C 26.769531 62.40625 27.15625 62.167969 27.558594 61.863281 C 27.660156 61.785156 27.761719 61.707031 27.863281 61.621094 C 27.976562 61.160156 28.109375 60.730469 28.261719 60.34375 C 28.542969 59.605469 28.824219 58.875 29.113281 58.148438 C 29.402344 57.421875 29.667969 56.757812 29.90625 56.15625 L 33.542969 47.03125 C 33.6875 46.660156 33.882812 46.402344 34.125 46.25 C 34.371094 46.101562 34.617188 46.023438 34.867188 46.023438 C 35.113281 46.023438 35.339844 46.105469 35.542969 46.265625 C 35.746094 46.425781 35.851562 46.683594 35.851562 47.042969 C 35.851562 47.214844 35.816406 47.394531 35.746094 47.582031 C 35.679688 47.769531 35.59375 47.972656 35.488281 48.191406 C 35.289062 48.632812 35.050781 49.175781 34.773438 49.816406 C 34.5 50.457031 34.203125 51.15625 33.886719 51.910156 C 33.570312 52.664062 33.246094 53.449219 32.914062 54.265625 C 32.582031 55.082031 32.257812 55.875 31.941406 56.648438 C 31.625 57.421875 31.328125 58.15625 31.054688 58.851562 C 30.777344 59.542969 30.539062 60.144531 30.339844 60.652344 C 30.25 60.871094 30.164062 61.125 30.082031 61.410156 C 29.996094 61.699219 29.953125 61.957031 29.953125 62.183594 C 29.953125 62.324219 29.980469 62.4375 30.027344 62.519531 C 30.074219 62.605469 30.167969 62.648438 30.304688 62.648438 C 30.472656 62.648438 30.679688 62.589844 30.933594 62.472656 C 31.183594 62.355469 31.457031 62.199219 31.75 62.003906 C 32.042969 61.8125 32.347656 61.589844 32.660156 61.339844 C 32.976562 61.089844 33.292969 60.832031 33.605469 60.5625 C 33.917969 60.292969 34.214844 60.023438 34.5 59.753906 C 34.78125 59.488281 35.039062 59.238281 35.261719 59.011719 C 35.3125 58.957031 35.378906 58.921875 35.445312 58.890625 C 35.582031 58.488281 35.703125 58.097656 35.8125 57.710938 C 35.878906 57.542969 35.964844 57.300781 36.078125 56.988281 C 36.191406 56.679688 36.316406 56.371094 36.460938 56.070312 C 36.605469 55.769531 36.769531 55.507812 36.949219 55.285156 C 37.128906 55.0625 37.324219 54.953125 37.53125 54.953125 C 37.851562 54.953125 38.082031 55.027344 38.226562 55.171875 C 38.371094 55.316406 38.441406 55.53125 38.441406 55.816406 C 38.441406 55.871094 38.433594 55.960938 38.417969 56.085938 C 38.402344 56.207031 38.382812 56.335938 38.359375 56.472656 C 38.335938 56.609375 38.308594 56.738281 38.28125 56.863281 C 38.253906 56.984375 38.226562 57.074219 38.203125 57.132812 C 38.5 56.808594 38.820312 56.492188 39.164062 56.175781 C 39.507812 55.859375 39.863281 55.574219 40.230469 55.320312 C 40.601562 55.066406 40.976562 54.859375 41.359375 54.699219 C 41.746094 54.539062 42.128906 54.457031 42.511719 54.457031 C 42.777344 54.457031 43.039062 54.496094 43.300781 54.570312 C 43.558594 54.644531 43.792969 54.757812 43.996094 54.902344 C 44.199219 55.050781 44.367188 55.234375 44.496094 55.453125 C 44.621094 55.675781 44.6875 55.933594 44.6875 56.226562 C 44.6875 56.613281 44.589844 57.023438 44.390625 57.464844 C 44.195312 57.902344 43.949219 58.34375 43.652344 58.785156 C 43.359375 59.230469 43.039062 59.660156 42.695312 60.082031 C 42.347656 60.5 42.027344 60.882812 41.726562 61.226562 C 41.425781 61.570312 41.175781 61.863281 40.96875 62.105469 C 40.765625 62.34375 40.660156 62.507812 40.652344 62.59375 C 40.652344 62.707031 40.6875 62.796875 40.761719 62.867188 C 40.832031 62.9375 40.953125 62.972656 41.121094 62.972656 C 41.257812 62.972656 41.457031 62.898438 41.722656 62.746094 C 41.984375 62.597656 42.355469 62.335938 42.832031 61.960938 C 43.308594 61.589844 43.914062 61.089844 44.644531 60.460938 C 45.148438 60.03125 45.734375 59.519531 46.398438 58.9375 L 49.574219 29.679688 C 49.0625 29.960938 48.53125 30.136719 48.214844 30.242188 C 46.902344 30.671875 45.046875 31.058594 42.703125 31.382812 Z M 24.992188 24.441406 C 11.265625 24.441406 0.136719 25.96875 0.136719 27.851562 C 0.136719 29.734375 11.265625 31.261719 24.992188 31.261719 C 38.722656 31.261719 49.851562 29.734375 49.851562 27.851562 C 49.851562 25.96875 38.722656 24.441406 24.992188 24.441406 Z M 34.917969 28.847656 C 34.917969 29.292969 33.59375 29.648438 31.964844 29.648438 C 30.332031 29.648438 29.007812 29.292969 29.007812 28.847656 C 29.007812 28.40625 30.332031 28.046875 31.964844 28.046875 C 33.59375 28.046875 34.917969 28.40625 34.917969 28.847656 Z M 34.917969 28.847656 "/>
<path style=" stroke:none;fill-rule:evenodd;fill:rgb(85.490196%,27.45098%,28.235294%);fill-opacity:1;" d="M 29.609375 28.496094 C 29.59375 28.519531 29.585938 28.542969 29.585938 28.566406 C 29.585938 28.851562 30.648438 29.085938 31.964844 29.085938 C 33.277344 29.085938 34.339844 28.851562 34.339844 28.566406 L 37.449219 16.039062 L 49.800781 3.0625 C 49.804688 3.058594 49.808594 3.054688 49.8125 3.050781 C 50.074219 2.757812 49.542969 1.847656 48.660156 1.066406 C 47.78125 0.285156 46.832031 0.0195312 46.535156 0.316406 C 46.535156 0.320312 46.53125 0.324219 46.527344 0.324219 L 33.351562 14.121094 Z M 29.609375 28.496094 "/>
</g>
</svg>
