<?xml version="1.0" encoding="UTF-8"?>
<svg xmlns="http://www.w3.org/2000/svg" xmlns:xlink="http://www.w3.org/1999/xlink" width="40pt" height="40pt" viewBox="0 0 40 40" version="1.1">
<g id="surface1">
<path style=" stroke:none;fill-rule:evenodd;fill:rgb(0%,0%,0%);fill-opacity:1;" d="M 26.859375 9.167969 L 13.140625 9.167969 C 10.949219 9.167969 9.167969 10.949219 9.167969 13.140625 L 9.167969 26.859375 C 9.167969 29.050781 10.949219 30.832031 13.140625 30.832031 L 26.859375 30.832031 C 29.050781 30.832031 30.832031 29.050781 30.832031 26.859375 L 30.832031 13.140625 C 30.832031 10.949219 29.050781 9.167969 26.859375 9.167969 Z M 20 27.132812 C 16.066406 27.132812 12.867188 23.933594 12.867188 20 C 12.867188 16.066406 16.066406 12.867188 20 12.867188 C 23.933594 12.867188 27.132812 16.066406 27.132812 20 C 27.132812 23.933594 23.933594 27.132812 20 27.132812 Z M 27.359375 14.34375 C 26.429688 14.34375 25.671875 13.585938 25.671875 12.65625 C 25.671875 11.726562 26.429688 10.96875 27.359375 10.96875 C 28.289062 10.96875 29.046875 11.726562 29.046875 12.65625 C 29.046875 13.585938 28.289062 14.34375 27.359375 14.34375 Z M 27.359375 14.34375 "/>
<path style=" stroke:none;fill-rule:evenodd;fill:rgb(0%,0%,0%);fill-opacity:1;" d="M 20 15.882812 C 17.730469 15.882812 15.882812 17.730469 15.882812 20 C 15.882812 22.269531 17.730469 24.117188 20 24.117188 C 22.269531 24.117188 24.117188 22.269531 24.117188 20 C 24.117188 17.730469 22.269531 15.882812 20 15.882812 Z M 20 15.882812 "/>
<path style=" stroke:none;fill-rule:evenodd;fill:rgb(0%,0%,0%);fill-opacity:1;" d="M 0 0 L 0 40 L 40 40 L 40 0 Z M 33.84375 26.859375 C 33.84375 30.710938 30.710938 33.84375 26.859375 33.84375 L 13.140625 33.84375 C 9.289062 33.84375 6.15625 30.710938 6.15625 26.859375 L 6.15625 13.140625 C 6.15625 9.289062 9.289062 6.15625 13.140625 6.15625 L 26.859375 6.15625 C 30.710938 6.15625 33.84375 9.289062 33.84375 13.140625 Z M 33.84375 26.859375 "/>
</g>
</svg>
