<?xml version="1.0" encoding="UTF-8"?>
<svg xmlns="http://www.w3.org/2000/svg" xmlns:xlink="http://www.w3.org/1999/xlink" width="110pt" height="110pt" viewBox="0 0 110 110" version="1.1">
<g id="surface1">
<path style=" stroke:none;fill-rule:nonzero;fill:rgb(3.137255%,40.784314%,67.45098%);fill-opacity:1;" d="M 8.273438 27.65625 C -1.207031 41.277344 -0.0273438 59.003906 7.214844 73.476562 C 7.386719 73.824219 7.566406 74.164062 7.742188 74.507812 L 8.082031 75.160156 L 8.292969 75.535156 L 8.671875 76.210938 C 8.894531 76.605469 9.125 77 9.363281 77.394531 L 9.757812 78.046875 C 10.019531 78.46875 10.285156 78.882812 10.558594 79.300781 L 10.898438 79.828125 C 11.277344 80.390625 11.664062 80.953125 12.0625 81.503906 L 12.097656 81.546875 L 12.292969 81.8125 C 12.636719 82.285156 12.992188 82.757812 13.351562 83.21875 L 13.75 83.726562 C 14.070312 84.128906 14.394531 84.53125 14.726562 84.929688 L 15.101562 85.375 C 15.546875 85.902344 16 86.421875 16.464844 86.933594 L 16.492188 86.960938 L 16.542969 87.019531 C 16.996094 87.515625 17.460938 87.996094 17.929688 88.480469 L 18.375 88.929688 C 18.738281 89.292969 19.105469 89.652344 19.480469 90.011719 L 19.933594 90.441406 C 20.429688 90.914062 20.933594 91.371094 21.449219 91.824219 L 21.472656 91.84375 L 21.738281 92.066406 C 22.191406 92.460938 22.652344 92.847656 23.113281 93.230469 L 23.683594 93.683594 C 24.0625 93.988281 24.449219 94.289062 24.832031 94.582031 L 25.445312 95.046875 C 25.875 95.363281 26.300781 95.671875 26.734375 95.972656 L 27.203125 96.304688 L 27.332031 96.398438 C 27.742188 96.679688 28.164062 96.953125 28.585938 97.222656 L 29.125 97.585938 C 29.769531 97.992188 30.421875 98.394531 31.085938 98.785156 L 31.625 99.089844 C 32.113281 99.371094 32.601562 99.644531 33.09375 99.914062 C 33.363281 100.058594 33.636719 100.195312 33.910156 100.332031 C 34.257812 100.515625 34.605469 100.703125 34.960938 100.878906 L 35.203125 100.996094 L 35.636719 101.207031 C 36.1875 101.46875 36.742188 101.726562 37.300781 101.976562 L 37.65625 102.136719 C 38.296875 102.414062 38.945312 102.6875 39.597656 102.945312 L 40.074219 103.128906 C 40.675781 103.363281 41.292969 103.59375 41.90625 103.808594 L 42.136719 103.890625 C 42.8125 104.125 43.496094 104.34375 44.183594 104.558594 L 44.679688 104.707031 C 45.378906 104.917969 46.070312 105.167969 46.789062 105.300781 C 92.628906 113.660156 105.945312 77.757812 105.945312 77.757812 C 94.761719 92.324219 74.910156 96.167969 56.101562 91.890625 C 55.390625 91.730469 54.699219 91.507812 54.003906 91.300781 L 53.480469 91.144531 C 52.800781 90.933594 52.128906 90.714844 51.460938 90.484375 L 51.183594 90.382812 C 50.582031 90.175781 49.992188 89.953125 49.398438 89.722656 L 48.898438 89.527344 C 48.253906 89.273438 47.609375 89.003906 46.976562 88.726562 L 46.59375 88.558594 C 46.046875 88.308594 45.507812 88.058594 44.96875 87.800781 L 44.5 87.578125 C 44.078125 87.371094 43.660156 87.152344 43.242188 86.9375 C 42.964844 86.789062 42.683594 86.652344 42.40625 86.5 C 41.898438 86.226562 41.398438 85.945312 40.902344 85.65625 L 40.394531 85.371094 C 39.730469 84.984375 39.078125 84.582031 38.433594 84.171875 L 37.90625 83.820312 C 37.4375 83.515625 36.96875 83.210938 36.511719 82.890625 L 36.0625 82.578125 C 35.617188 82.261719 35.179688 81.945312 34.742188 81.625 L 34.160156 81.183594 C 33.761719 80.875 33.363281 80.570312 32.972656 80.25 L 32.441406 79.828125 C 31.941406 79.414062 31.445312 79.003906 30.957031 78.578125 L 30.796875 78.441406 C 30.269531 77.976562 29.75 77.503906 29.238281 77.027344 L 28.800781 76.605469 C 28.421875 76.242188 28.046875 75.878906 27.679688 75.507812 L 27.242188 75.070312 C 26.777344 74.589844 26.316406 74.105469 25.871094 73.617188 L 25.800781 73.542969 C 25.328125 73.023438 24.863281 72.496094 24.410156 71.960938 L 24.042969 71.527344 C 23.707031 71.117188 23.371094 70.703125 23.042969 70.289062 L 22.675781 69.832031 C 22.28125 69.316406 21.894531 68.808594 21.515625 68.289062 C 11.074219 54.046875 7.324219 34.402344 15.667969 18.269531 M 37.695312 16.179688 C 30.839844 26.042969 31.210938 39.246094 36.558594 49.679688 C 37.453125 51.425781 38.464844 53.125 39.589844 54.738281 C 40.617188 56.210938 41.757812 57.964844 43.121094 59.144531 C 43.613281 59.691406 44.128906 60.21875 44.65625 60.742188 L 45.0625 61.140625 C 45.574219 61.640625 46.09375 62.125 46.632812 62.601562 L 46.699219 62.65625 L 46.714844 62.671875 C 47.308594 63.195312 47.921875 63.695312 48.546875 64.191406 L 48.964844 64.515625 C 49.589844 64.996094 50.230469 65.464844 50.882812 65.917969 L 50.9375 65.957031 C 51.226562 66.15625 51.523438 66.34375 51.816406 66.535156 L 52.230469 66.808594 C 52.699219 67.109375 53.171875 67.402344 53.652344 67.683594 L 53.855469 67.800781 C 54.269531 68.039062 54.691406 68.273438 55.113281 68.503906 L 55.558594 68.734375 C 55.851562 68.886719 56.140625 69.042969 56.4375 69.191406 L 56.570312 69.25 C 57.175781 69.546875 57.785156 69.835938 58.40625 70.105469 L 58.8125 70.273438 C 59.3125 70.484375 59.8125 70.691406 60.316406 70.882812 L 60.960938 71.121094 C 61.417969 71.289062 61.878906 71.445312 62.34375 71.601562 L 62.96875 71.800781 C 63.625 72.003906 64.277344 72.261719 64.964844 72.378906 C 100.355469 78.242188 108.527344 50.992188 108.527344 50.992188 C 101.164062 61.597656 86.898438 66.660156 71.679688 62.707031 C 71 62.53125 70.335938 62.339844 69.671875 62.128906 L 69.070312 61.933594 C 68.597656 61.78125 68.132812 61.621094 67.667969 61.453125 L 67.035156 61.214844 C 66.527344 61.019531 66.027344 60.820312 65.527344 60.605469 L 65.121094 60.433594 C 64.496094 60.164062 63.878906 59.875 63.273438 59.578125 C 62.964844 59.425781 62.65625 59.265625 62.347656 59.105469 L 61.8125 58.832031 C 61.421875 58.617188 61.027344 58.394531 60.644531 58.167969 L 60.363281 58.011719 C 59.882812 57.730469 59.410156 57.441406 58.945312 57.144531 L 58.515625 56.859375 C 58.207031 56.660156 57.898438 56.457031 57.597656 56.25 C 56.945312 55.800781 56.308594 55.328125 55.683594 54.851562 L 55.253906 54.511719 C 48.589844 49.253906 43.308594 42.0625 40.800781 33.914062 C 38.167969 25.460938 38.734375 15.96875 43.292969 8.269531 M 62.441406 7.601562 C 58.398438 13.550781 58 20.933594 60.804688 27.503906 C 63.761719 34.476562 69.820312 39.941406 76.894531 42.539062 C 77.183594 42.644531 77.476562 42.742188 77.773438 42.839844 L 78.160156 42.964844 C 78.574219 43.09375 78.988281 43.246094 79.421875 43.328125 C 98.960938 47.105469 104.261719 33.300781 105.671875 31.269531 C 101.03125 37.953125 93.226562 39.558594 83.652344 37.234375 C 82.898438 37.050781 82.066406 36.777344 81.335938 36.519531 C 80.402344 36.1875 79.480469 35.804688 78.585938 35.378906 C 76.886719 34.558594 75.265625 33.570312 73.761719 32.433594 C 65.195312 25.933594 59.875 13.535156 65.464844 3.433594 "/>
</g>
</svg>
