<?xml version="1.0" encoding="UTF-8"?>
<svg xmlns="http://www.w3.org/2000/svg" xmlns:xlink="http://www.w3.org/1999/xlink" width="110pt" height="110pt" viewBox="0 0 110 110" version="1.1">
<g id="surface1">
<path style=" stroke:none;fill-rule:nonzero;fill:rgb(3.137255%,40.784314%,67.45098%);fill-opacity:1;" d="M 23.855469 17.550781 C 17.535156 26.628906 18.324219 38.441406 23.148438 48.089844 L 23.503906 48.777344 L 23.730469 49.210938 L 23.871094 49.460938 L 24.121094 49.914062 C 24.269531 50.175781 24.425781 50.4375 24.582031 50.703125 L 24.84375 51.136719 C 25.019531 51.414062 25.199219 51.695312 25.378906 51.972656 L 25.609375 52.324219 C 25.859375 52.699219 26.117188 53.074219 26.382812 53.441406 L 26.40625 53.46875 L 26.535156 53.644531 C 26.765625 53.960938 27 54.273438 27.242188 54.585938 L 27.507812 54.921875 C 27.71875 55.191406 27.9375 55.457031 28.160156 55.726562 L 28.40625 56.023438 C 28.703125 56.371094 29.007812 56.71875 29.316406 57.0625 L 29.371094 57.117188 C 29.671875 57.449219 29.980469 57.769531 30.292969 58.09375 L 30.589844 58.390625 C 30.832031 58.632812 31.078125 58.875 31.324219 59.113281 L 31.628906 59.398438 C 31.960938 59.710938 32.296875 60.019531 32.636719 60.320312 L 32.652344 60.332031 L 32.828125 60.484375 C 33.132812 60.746094 33.4375 61.003906 33.746094 61.257812 L 34.128906 61.5625 C 34.378906 61.761719 34.636719 61.964844 34.890625 62.160156 L 35.300781 62.46875 C 35.585938 62.679688 35.871094 62.882812 36.160156 63.085938 L 36.472656 63.308594 L 36.558594 63.371094 C 36.832031 63.558594 37.113281 63.738281 37.394531 63.921875 L 37.753906 64.160156 C 38.183594 64.433594 38.621094 64.703125 39.058594 64.960938 L 39.421875 65.164062 C 39.746094 65.351562 40.070312 65.535156 40.398438 65.714844 L 40.941406 65.992188 L 41.644531 66.359375 L 41.804688 66.4375 L 42.09375 66.574219 C 42.460938 66.75 42.828125 66.921875 43.203125 67.089844 L 43.4375 67.195312 C 43.867188 67.382812 44.296875 67.5625 44.734375 67.734375 L 45.050781 67.859375 C 45.453125 68.015625 45.863281 68.167969 46.273438 68.3125 L 46.425781 68.363281 C 46.878906 68.523438 47.332031 68.667969 47.789062 68.8125 L 48.121094 68.910156 C 48.585938 69.050781 49.046875 69.214844 49.527344 69.304688 C 80.082031 74.878906 88.957031 50.945312 88.957031 50.945312 C 81.5 60.65625 68.269531 63.21875 55.734375 60.367188 C 55.261719 60.257812 54.800781 60.109375 54.335938 59.976562 L 53.988281 59.867188 C 53.535156 59.730469 53.085938 59.585938 52.640625 59.429688 L 52.457031 59.363281 C 52.054688 59.222656 51.660156 59.074219 51.269531 58.921875 L 50.933594 58.792969 C 50.503906 58.621094 50.074219 58.445312 49.652344 58.257812 L 49.394531 58.144531 C 49.03125 57.980469 48.671875 57.816406 48.3125 57.640625 L 48 57.492188 C 47.71875 57.355469 47.441406 57.210938 47.164062 57.066406 L 46.605469 56.773438 C 46.265625 56.59375 45.933594 56.402344 45.605469 56.210938 L 45.265625 56.023438 C 44.824219 55.761719 44.390625 55.496094 43.957031 55.222656 L 43.605469 54.988281 C 43.292969 54.785156 42.984375 54.582031 42.675781 54.371094 L 42.378906 54.160156 C 42.082031 53.953125 41.789062 53.738281 41.5 53.523438 L 41.109375 53.230469 C 40.84375 53.027344 40.578125 52.820312 40.316406 52.609375 L 39.964844 52.328125 C 39.632812 52.054688 39.300781 51.777344 38.976562 51.496094 L 38.867188 51.40625 C 38.515625 51.097656 38.171875 50.777344 37.832031 50.460938 L 37.539062 50.179688 C 37.285156 49.9375 37.035156 49.695312 36.792969 49.449219 L 36.5 49.15625 C 36.1875 48.835938 35.882812 48.515625 35.585938 48.1875 L 35.539062 48.140625 C 35.222656 47.792969 34.914062 47.441406 34.613281 47.082031 L 34.367188 46.792969 C 34.140625 46.523438 33.917969 46.246094 33.699219 45.96875 L 33.457031 45.664062 C 33.191406 45.320312 32.9375 44.980469 32.683594 44.636719 C 25.722656 35.140625 23.222656 22.050781 28.785156 11.296875 M 43.464844 9.898438 C 38.898438 16.472656 39.144531 25.277344 42.710938 32.226562 C 43.304688 33.394531 43.976562 34.523438 44.730469 35.601562 C 45.414062 36.582031 46.171875 37.75 47.082031 38.539062 C 47.410156 38.902344 47.753906 39.253906 48.105469 39.601562 L 48.375 39.871094 C 48.71875 40.199219 49.066406 40.527344 49.421875 40.84375 L 49.464844 40.878906 L 49.476562 40.890625 C 49.875 41.238281 50.285156 41.570312 50.699219 41.902344 L 50.976562 42.117188 C 51.394531 42.4375 51.820312 42.753906 52.257812 43.054688 L 52.292969 43.082031 L 52.878906 43.464844 L 53.15625 43.648438 C 53.46875 43.847656 53.78125 44.042969 54.105469 44.230469 L 54.238281 44.308594 C 54.515625 44.46875 54.792969 44.625 55.074219 44.777344 L 55.375 44.929688 L 55.960938 45.234375 L 56.046875 45.277344 C 56.453125 45.472656 56.855469 45.664062 57.273438 45.847656 L 57.542969 45.957031 C 57.875 46.097656 58.207031 46.234375 58.546875 46.363281 L 58.976562 46.523438 C 59.28125 46.636719 59.585938 46.738281 59.894531 46.84375 L 60.3125 46.976562 C 60.75 47.113281 61.1875 47.285156 61.644531 47.359375 C 85.234375 51.269531 90.679688 33.105469 90.679688 33.105469 C 85.769531 40.175781 76.261719 43.550781 66.117188 40.917969 C 65.667969 40.796875 65.222656 40.667969 64.78125 40.53125 L 64.378906 40.402344 C 64.066406 40.300781 63.753906 40.191406 63.445312 40.078125 L 63.023438 39.921875 C 62.683594 39.792969 62.351562 39.65625 62.019531 39.515625 L 61.746094 39.402344 C 61.332031 39.21875 60.921875 39.027344 60.515625 38.828125 L 59.898438 38.515625 L 59.542969 38.332031 C 59.28125 38.191406 59.019531 38.042969 58.761719 37.890625 L 58.574219 37.785156 C 58.257812 37.597656 57.941406 37.40625 57.628906 37.207031 L 57.34375 37.015625 L 56.734375 36.613281 C 56.296875 36.3125 55.875 36 55.457031 35.679688 L 55.171875 35.453125 C 50.730469 31.945312 47.210938 27.15625 45.539062 21.722656 C 43.785156 16.085938 44.160156 9.761719 47.199219 4.628906 M 59.960938 4.183594 C 57.265625 8.148438 57 13.070312 58.871094 17.449219 C 60.839844 22.09375 64.878906 25.738281 69.59375 27.46875 L 70.179688 27.671875 L 70.4375 27.753906 C 70.714844 27.839844 70.992188 27.941406 71.277344 27.996094 C 84.304688 30.511719 87.835938 21.3125 88.777344 19.957031 C 85.679688 24.414062 80.480469 25.480469 74.097656 23.933594 C 73.59375 23.8125 73.039062 23.628906 72.554688 23.457031 C 71.933594 23.234375 71.320312 22.980469 70.722656 22.695312 C 69.589844 22.148438 68.507812 21.488281 67.507812 20.734375 C 61.796875 16.398438 58.25 8.136719 61.976562 1.402344 "/>
<path style=" stroke:none;fill-rule:nonzero;fill:rgb(7.45098%,10.588235%,15.686275%);fill-opacity:1;" d="M 57.027344 82.753906 L 53.394531 82.753906 C 53.195312 82.753906 52.996094 82.914062 52.953125 83.113281 L 51.664062 89.074219 L 50.375 95.039062 C 50.332031 95.238281 50.128906 95.398438 49.929688 95.398438 L 47.359375 95.398438 C 44.816406 95.398438 45.109375 93.640625 45.632812 91.230469 L 45.648438 91.15625 L 45.703125 90.851562 L 45.714844 90.796875 L 45.828125 90.175781 L 45.953125 89.515625 L 46.085938 88.839844 L 47.257812 83.113281 C 47.300781 82.914062 47.167969 82.753906 46.964844 82.753906 L 43.238281 82.753906 C 43.039062 82.753906 42.839844 82.914062 42.796875 83.113281 L 41.195312 90.714844 L 41.191406 90.722656 L 41.121094 91.074219 C 40.195312 95.289062 40.441406 99.308594 45.457031 99.433594 L 45.605469 99.4375 L 53.476562 99.4375 C 53.679688 99.4375 53.878906 99.277344 53.921875 99.078125 L 55.621094 91.097656 L 57.316406 83.113281 C 57.359375 82.914062 57.230469 82.753906 57.027344 82.753906 Z M 18.136719 82.710938 L 14.148438 82.710938 C 13.945312 82.710938 13.746094 82.871094 13.699219 83.070312 L 13.320312 84.738281 L 12.945312 86.40625 C 12.898438 86.601562 13.027344 86.765625 13.230469 86.765625 L 17.25 86.765625 C 17.449219 86.765625 17.652344 86.601562 17.695312 86.40625 L 18.058594 84.738281 L 18.425781 83.070312 C 18.464844 82.871094 18.335938 82.710938 18.136719 82.710938 Z M 16.980469 87.90625 L 12.960938 87.90625 C 12.757812 87.90625 12.554688 88.066406 12.511719 88.261719 L 11.945312 90.765625 L 11.382812 93.265625 L 11.226562 93.980469 L 10.683594 96.53125 L 10.140625 99.085938 C 10.101562 99.28125 10.011719 99.601562 9.949219 99.792969 C 9.949219 99.792969 9.199219 102.027344 7.933594 102 L 7.777344 101.996094 L 6.683594 101.976562 C 6.484375 101.972656 6.28125 102.132812 6.234375 102.328125 L 5.816406 104.078125 L 5.402344 105.832031 C 5.355469 106.027344 5.480469 106.1875 5.679688 106.191406 C 6.398438 106.199219 8 106.21875 8.972656 106.21875 C 12.125 106.21875 13.785156 104.472656 14.851562 99.445312 L 16.097656 93.671875 L 17.269531 88.261719 C 17.308594 88.066406 17.179688 87.90625 16.980469 87.90625 Z M 90.984375 86.554688 L 90.820312 85.863281 L 90.65625 85.160156 L 90.570312 84.804688 C 90.246094 83.535156 89.285156 82.804688 87.203125 82.804688 L 83.964844 82.800781 L 80.980469 82.796875 L 77.625 82.796875 C 77.421875 82.796875 77.222656 82.957031 77.179688 83.152344 L 77.03125 83.855469 L 76.855469 84.683594 L 76.808594 84.917969 L 75.296875 91.996094 L 73.863281 98.71875 C 73.820312 98.917969 73.804688 99.160156 73.828125 99.257812 C 73.851562 99.355469 74.242188 99.4375 74.441406 99.4375 L 77.46875 99.4375 C 77.671875 99.4375 77.925781 99.402344 78.039062 99.355469 C 78.148438 99.3125 78.308594 98.914062 78.351562 98.71875 L 78.886719 96.054688 L 79.425781 93.390625 L 79.429688 93.386719 L 79.5 93.03125 L 80.152344 89.972656 L 80.730469 87.269531 C 80.773438 87.074219 80.972656 86.914062 81.171875 86.914062 L 90.703125 86.910156 C 90.902344 86.910156 91.03125 86.75 90.984375 86.554688 Z M 103.253906 80.332031 L 99.46875 80.332031 C 99.265625 80.332031 99.007812 80.46875 98.894531 80.636719 L 92.152344 90.519531 C 92.039062 90.683594 91.90625 90.660156 91.863281 90.464844 L 91.367188 88.289062 C 91.320312 88.089844 91.121094 87.929688 90.917969 87.929688 L 86.582031 87.929688 C 86.378906 87.929688 86.261719 88.089844 86.316406 88.28125 L 88.257812 95.089844 C 88.3125 95.285156 88.316406 95.601562 88.269531 95.796875 L 87.421875 99.089844 C 87.371094 99.285156 87.496094 99.445312 87.695312 99.445312 L 91.980469 99.445312 C 92.183594 99.445312 92.390625 99.285156 92.441406 99.089844 L 93.285156 95.796875 C 93.335938 95.601562 93.476562 95.308594 93.597656 95.148438 L 104.550781 80.617188 C 104.671875 80.453125 104.605469 80.324219 104.402344 80.324219 Z M 68.804688 88.855469 L 68.804688 88.851562 C 68.777344 89.070312 68.578125 89.230469 68.375 89.230469 L 62.878906 89.230469 C 62.6875 89.230469 62.589844 89.101562 62.621094 88.941406 L 62.625 88.929688 L 62.621094 88.929688 L 62.648438 88.820312 C 63.171875 87.421875 64.242188 86.507812 66.253906 86.507812 C 68.515625 86.507812 68.957031 87.613281 68.804688 88.855469 Z M 67.191406 82.507812 C 60.136719 82.507812 58.460938 86.792969 57.523438 91.117188 C 56.585938 95.523438 56.667969 99.640625 63.96875 99.640625 L 65.125 99.640625 L 66.003906 99.636719 L 66.019531 99.636719 C 67.945312 99.628906 69.882812 99.617188 70.664062 99.609375 C 70.863281 99.605469 71.058594 99.445312 71.101562 99.25 L 71.398438 97.804688 L 71.453125 97.523438 L 71.808594 95.800781 C 71.847656 95.601562 71.714844 95.441406 71.515625 95.441406 L 64.949219 95.441406 C 62.335938 95.441406 61.5625 94.746094 61.847656 92.707031 L 72.34375 92.707031 L 72.339844 92.707031 L 72.347656 92.707031 C 72.515625 92.703125 72.667969 92.589844 72.730469 92.4375 L 72.753906 92.34375 L 72.753906 92.347656 C 74.3125 86.46875 73.867188 82.511719 67.191406 82.507812 Z M 33.839844 88.832031 L 33.738281 89.183594 L 32.945312 91.992188 L 32.15625 94.800781 C 32.101562 94.996094 31.890625 95.15625 31.6875 95.15625 L 27.492188 95.15625 C 24.3125 95.15625 23.539062 92.664062 24.3125 88.996094 C 25.085938 85.242188 26.605469 82.910156 29.738281 82.671875 C 34.015625 82.351562 34.871094 85.359375 33.839844 88.832031 Z M 36.714844 94.9375 C 36.714844 94.9375 38.695312 90.136719 39.140625 87.363281 C 39.753906 83.652344 37.894531 78.265625 30.714844 78.265625 C 23.578125 78.265625 20.476562 83.40625 19.296875 88.996094 C 18.113281 94.625 19.664062 99.558594 26.761719 99.519531 L 32.359375 99.5 L 37.59375 99.480469 C 37.792969 99.480469 38 99.320312 38.050781 99.125 L 38.964844 95.648438 C 39.015625 95.453125 38.890625 95.292969 38.6875 95.289062 L 37.816406 95.285156 L 36.941406 95.28125 C 36.769531 95.277344 36.671875 95.167969 36.691406 95.019531 Z M 72.054688 91.722656 C 72.054688 91.855469 71.945312 91.964844 71.8125 91.964844 C 71.679688 91.964844 71.570312 91.855469 71.570312 91.722656 C 71.570312 91.589844 71.679688 91.484375 71.8125 91.484375 C 71.945312 91.484375 72.054688 91.589844 72.054688 91.722656 Z M 72.054688 91.722656 "/>
</g>
</svg>
