<?xml version="1.0" encoding="UTF-8"?>
<svg xmlns="http://www.w3.org/2000/svg" xmlns:xlink="http://www.w3.org/1999/xlink" width="161pt" height="110pt" viewBox="0 0 161 110" version="1.1">
<g id="surface1">
<path style=" stroke:none;fill-rule:nonzero;fill:rgb(0%,45.882353%,56.078431%);fill-opacity:1;" d="M 37.898438 100.414062 L 31.816406 100.414062 C 31.601562 90.085938 31.007812 80.371094 30.039062 71.273438 L 29.984375 71.273438 L 20.726562 100.414062 L 16.09375 100.414062 L 6.890625 71.273438 L 6.835938 71.273438 C 6.152344 80.011719 5.722656 89.722656 5.546875 100.414062 L 0 100.414062 C 0.359375 87.414062 1.253906 75.226562 2.691406 63.847656 L 10.226562 63.847656 L 19.003906 90.714844 L 19.054688 90.714844 L 27.886719 63.847656 L 35.097656 63.847656 C 36.675781 77.171875 37.609375 89.363281 37.894531 100.414062 M 64.277344 73.4375 C 61.800781 86.957031 58.535156 96.785156 54.480469 102.914062 C 51.320312 107.636719 47.859375 110 44.089844 110 C 43.085938 110 41.847656 109.695312 40.378906 109.089844 L 40.378906 105.832031 C 41.097656 105.9375 41.9375 105.992188 42.90625 105.992188 C 44.664062 105.992188 46.082031 105.503906 47.160156 104.527344 C 48.453125 103.339844 49.097656 102.003906 49.097656 100.519531 C 49.097656 99.507812 48.59375 97.433594 47.589844 94.292969 L 40.914062 73.4375 L 46.890625 73.4375 L 51.679688 89.035156 C 52.757812 92.578125 53.207031 95.050781 53.027344 96.457031 C 55.648438 89.417969 57.476562 81.742188 58.519531 73.4375 L 64.277344 73.4375 "/>
<path style=" stroke:none;fill-rule:nonzero;fill:rgb(94.901961%,56.862745%,6.666667%);fill-opacity:1;" d="M 90.921875 90.277344 C 90.921875 93.378906 89.789062 95.925781 87.53125 97.917969 C 85.273438 99.898438 82.238281 100.894531 78.4375 100.894531 C 74.882812 100.894531 71.4375 99.75 68.101562 97.480469 L 69.664062 94.339844 C 72.535156 95.785156 75.132812 96.503906 77.464844 96.503906 C 79.652344 96.503906 81.367188 96.015625 82.605469 95.046875 C 83.84375 94.070312 84.582031 92.710938 84.582031 90.984375 C 84.582031 88.816406 83.078125 86.960938 80.316406 85.402344 C 77.769531 83.996094 72.675781 81.054688 72.675781 81.054688 C 69.914062 79.03125 68.53125 76.855469 68.53125 73.277344 C 68.53125 70.3125 69.5625 67.917969 71.625 66.097656 C 73.691406 64.273438 76.355469 63.359375 79.617188 63.359375 C 82.992188 63.359375 86.058594 64.265625 88.824219 66.070312 L 87.417969 69.210938 C 85.054688 68.199219 82.722656 67.695312 80.425781 67.695312 C 78.5625 67.695312 77.125 68.144531 76.121094 69.050781 C 75.113281 69.949219 74.492188 71.105469 74.492188 72.515625 C 74.492188 74.679688 76.03125 76.558594 78.867188 78.148438 C 81.449219 79.554688 86.667969 82.550781 86.667969 82.550781 C 89.503906 84.570312 90.921875 86.726562 90.921875 90.277344 "/>
<path style=" stroke:none;fill-rule:evenodd;fill:rgb(94.901961%,56.862745%,6.666667%);fill-opacity:1;" d="M 101.792969 93.097656 C 100.320312 90.714844 99.582031 86.890625 99.582031 81.617188 C 99.582031 72.410156 102.367188 67.804688 107.925781 67.804688 C 110.835938 67.804688 112.96875 68.90625 114.335938 71.105469 C 115.804688 73.492188 116.542969 77.28125 116.542969 82.484375 C 116.542969 91.761719 113.757812 96.40625 108.199219 96.40625 C 105.289062 96.40625 103.15625 95.304688 101.792969 93.097656 M 123.433594 101.296875 L 116.753906 97.980469 C 117.347656 97.492188 117.914062 96.960938 118.425781 96.347656 C 121.261719 92.992188 122.679688 88.027344 122.679688 81.457031 C 122.679688 69.359375 117.960938 63.308594 108.523438 63.308594 C 103.890625 63.308594 100.285156 64.839844 97.699219 67.914062 C 94.863281 71.269531 93.449219 76.21875 93.449219 82.753906 C 93.449219 89.183594 94.703125 93.898438 97.214844 96.890625 C 99.503906 99.597656 102.964844 100.953125 107.597656 100.953125 C 109.328125 100.953125 110.914062 100.738281 112.355469 100.3125 L 121.054688 105.40625 L 123.425781 101.296875 "/>
<path style=" stroke:none;fill-rule:nonzero;fill:rgb(94.901961%,56.862745%,6.666667%);fill-opacity:1;" d="M 145.234375 100.414062 L 127.957031 100.414062 L 127.957031 63.847656 L 133.769531 63.847656 L 133.769531 95.914062 L 145.234375 95.914062 Z M 149.382812 100.410156 L 150.34375 100.410156 L 150.34375 96.691406 L 151.605469 96.691406 L 151.605469 95.929688 L 148.070312 95.929688 L 148.070312 96.691406 L 149.382812 96.691406 Z M 156.710938 100.410156 L 157.621094 100.410156 L 157.621094 95.929688 L 156.253906 95.929688 L 155.144531 98.984375 L 153.933594 95.929688 L 152.617188 95.929688 L 152.617188 100.410156 L 153.476562 100.410156 L 153.476562 97 L 153.523438 97 L 154.792969 100.410156 L 155.445312 100.410156 L 156.710938 97 Z M 156.710938 100.410156 "/>
<path style=" stroke:none;fill-rule:evenodd;fill:rgb(0%,45.882353%,56.078431%);fill-opacity:1;" d="M 152.535156 51.601562 C 149.019531 51.511719 146.296875 51.867188 144.015625 52.839844 C 143.355469 53.105469 142.304688 53.105469 142.214844 53.945312 C 142.566406 54.296875 142.609375 54.871094 142.917969 55.359375 C 143.445312 56.242188 144.367188 57.433594 145.203125 58.050781 C 146.125 58.761719 147.046875 59.464844 148.011719 60.082031 C 149.722656 61.148438 151.65625 61.761719 153.324219 62.824219 C 154.292969 63.441406 155.253906 64.234375 156.222656 64.902344 C 156.703125 65.253906 157.007812 65.828125 157.625 66.046875 L 157.625 65.914062 C 157.316406 65.515625 157.230469 64.941406 156.925781 64.5 C 156.484375 64.058594 156.046875 63.660156 155.605469 63.21875 C 154.332031 61.496094 152.75 59.996094 151.042969 58.761719 C 149.636719 57.785156 146.5625 56.460938 145.992188 54.828125 L 145.902344 54.738281 C 146.871094 54.648438 148.011719 54.296875 148.933594 54.027344 C 150.425781 53.632812 151.785156 53.722656 153.324219 53.324219 C 154.027344 53.148438 154.726562 52.925781 155.433594 52.707031 L 155.433594 52.304688 C 154.640625 51.511719 154.070312 50.453125 153.238281 49.699219 C 151 47.757812 148.539062 45.859375 145.992188 44.265625 C 144.628906 43.382812 142.875 42.8125 141.421875 42.058594 C 140.898438 41.792969 140.023438 41.660156 139.714844 41.21875 C 138.921875 40.246094 138.480469 38.964844 137.914062 37.816406 C 136.640625 35.390625 135.410156 32.695312 134.3125 30.128906 C 133.523438 28.40625 133.039062 26.683594 132.074219 25.09375 C 127.550781 17.582031 122.632812 13.035156 115.082031 8.570312 C 113.457031 7.640625 111.527344 7.246094 109.464844 6.757812 C 108.363281 6.710938 107.269531 6.625 106.171875 6.582031 C 105.46875 6.273438 104.761719 5.433594 104.148438 5.035156 C 101.644531 3.445312 95.195312 0 93.351562 4.550781 C 92.164062 7.421875 95.105469 10.25 96.117188 11.707031 C 96.863281 12.722656 97.828125 13.871094 98.355469 15.019531 C 98.660156 15.769531 98.75 16.566406 99.058594 17.363281 C 99.757812 19.304688 100.417969 21.472656 101.339844 23.28125 C 101.824219 24.210938 102.347656 25.183594 102.964844 26.019531 C 103.316406 26.507812 103.929688 26.726562 104.0625 27.523438 C 103.449219 28.40625 103.402344 29.730469 103.050781 30.835938 C 101.472656 35.828125 102.085938 42.015625 104.324219 45.679688 C 105.027344 46.785156 106.695312 49.214844 108.9375 48.285156 C 110.910156 47.492188 110.472656 44.972656 111.042969 42.765625 C 111.175781 42.230469 111.085938 41.882812 111.347656 41.527344 L 111.347656 41.617188 C 111.964844 42.851562 112.578125 44.042969 113.148438 45.285156 C 114.511719 47.445312 116.882812 49.699219 118.859375 51.203125 C 119.910156 52 120.746094 53.367188 122.0625 53.855469 L 122.0625 53.722656 L 121.976562 53.722656 C 121.710938 53.324219 121.316406 53.144531 120.964844 52.839844 C 120.175781 52.042969 119.300781 51.070312 118.683594 50.1875 C 116.839844 47.714844 115.210938 44.972656 113.765625 42.148438 C 113.0625 40.773438 112.449219 39.273438 111.875 37.90625 C 111.613281 37.375 111.613281 36.578125 111.175781 36.316406 C 110.515625 37.285156 109.550781 38.125 109.066406 39.316406 C 108.234375 41.21875 108.144531 43.558594 107.835938 45.988281 C 107.660156 46.035156 107.75 45.988281 107.660156 46.078125 C 106.257812 45.722656 105.777344 44.265625 105.246094 43.035156 C 103.929688 39.894531 103.710938 34.855469 104.851562 31.234375 C 105.15625 30.308594 106.480469 27.390625 105.949219 26.507812 C 105.683594 25.664062 104.808594 25.183594 104.324219 24.519531 C 103.757812 23.679688 103.136719 22.621094 102.746094 21.691406 C 101.691406 19.21875 101.160156 16.476562 100.023438 14.003906 C 99.496094 12.855469 98.574219 11.660156 97.828125 10.601562 C 96.992188 9.410156 96.070312 8.570312 95.414062 7.15625 C 95.195312 6.671875 94.886719 5.875 95.238281 5.347656 C 95.324219 4.992188 95.5 4.859375 95.855469 4.769531 C 96.421875 4.285156 98.046875 4.902344 98.617188 5.167969 C 100.242188 5.828125 101.605469 6.449219 102.964844 7.375 C 103.578125 7.820312 104.238281 8.65625 105.027344 8.878906 L 105.949219 8.878906 C 107.355469 9.1875 108.9375 8.964844 110.253906 9.367188 C 112.578125 10.117188 114.6875 11.21875 116.574219 12.414062 C 122.324219 16.082031 127.066406 21.296875 130.269531 27.523438 C 130.796875 28.539062 131.019531 29.46875 131.503906 30.523438 C 132.425781 32.695312 133.566406 34.902344 134.488281 37.023438 C 135.410156 39.097656 136.289062 41.21875 137.609375 42.941406 C 138.265625 43.867188 140.898438 44.355469 142.085938 44.839844 C 142.960938 45.238281 144.324219 45.589844 145.113281 46.078125 C 146.605469 47.003906 148.097656 48.066406 149.503906 49.082031 C 150.207031 49.613281 152.402344 50.714844 152.535156 51.601562 "/>
<path style=" stroke:none;fill-rule:evenodd;fill:rgb(0%,45.882353%,56.078431%);fill-opacity:1;" d="M 107.75 13.203125 C 107.140625 13.199219 106.539062 13.273438 105.949219 13.425781 L 105.949219 13.515625 L 106.035156 13.515625 C 106.390625 14.21875 107.003906 14.710938 107.441406 15.328125 C 107.792969 16.035156 108.101562 16.738281 108.453125 17.449219 C 108.496094 17.402344 108.535156 17.359375 108.535156 17.359375 C 109.15625 16.917969 109.464844 16.210938 109.464844 15.148438 C 109.199219 14.839844 109.15625 14.53125 108.933594 14.21875 C 108.671875 13.78125 108.101562 13.558594 107.75 13.203125 "/>
</g>
</svg>
