<?xml version="1.0" encoding="UTF-8"?>
<svg xmlns="http://www.w3.org/2000/svg" xmlns:xlink="http://www.w3.org/1999/xlink" width="109pt" height="59pt" viewBox="0 0 109 59" version="1.1">
<defs>
<clipPath id="clip1">
  <path d="M 1 1 L 108 1 L 108 58 L 1 58 Z M 1 1 "/>
</clipPath>
<clipPath id="clip2">
  <path d="M 1.53125 29.46875 C 1.53125 44.894531 25.253906 57.402344 54.515625 57.402344 C 83.777344 57.402344 107.496094 44.894531 107.496094 29.46875 C 107.496094 14.042969 83.777344 1.535156 54.515625 1.535156 C 25.253906 1.535156 1.53125 14.042969 1.53125 29.46875 "/>
</clipPath>
<radialGradient id="radial0" gradientUnits="userSpaceOnUse" cx="0" cy="0" fx="0" fy="0" r="1" gradientTransform="matrix(69.57333,0,0,69.727915,33.343886,11.356707)">
<stop offset="0" style="stop-color:rgb(68.235294%,69.803922%,83.529412%);stop-opacity:1;"/>
<stop offset="0.3" style="stop-color:rgb(68.235294%,69.803922%,83.529412%);stop-opacity:1;"/>
<stop offset="0.75" style="stop-color:rgb(28.235294%,29.803922%,53.72549%);stop-opacity:1;"/>
<stop offset="1" style="stop-color:rgb(28.235294%,29.803922%,53.72549%);stop-opacity:1;"/>
</radialGradient>
</defs>
<g id="surface1">
<g clip-path="url(#clip1)" clip-rule="nonzero">
<g clip-path="url(#clip2)" clip-rule="nonzero">
<path style=" stroke:none;fill-rule:nonzero;fill:url(#radial0);" d="M 1.53125 29.46875 C 1.53125 44.894531 25.253906 57.402344 54.515625 57.402344 C 83.777344 57.402344 107.496094 44.894531 107.496094 29.46875 C 107.496094 14.042969 83.777344 1.535156 54.515625 1.535156 C 25.253906 1.535156 1.53125 14.042969 1.53125 29.46875 "/>
</g>
</g>
<path style=" stroke:none;fill-rule:nonzero;fill:rgb(46.666667%,48.235294%,70.196078%);fill-opacity:1;" d="M 54.515625 55.328125 C 82.632812 55.328125 105.429688 43.75 105.429688 29.46875 C 105.429688 15.1875 82.632812 3.609375 54.515625 3.609375 C 26.398438 3.609375 3.601562 15.1875 3.601562 29.46875 C 3.601562 43.75 26.398438 55.328125 54.515625 55.328125 "/>
<path style=" stroke:none;fill-rule:nonzero;fill:rgb(0%,0%,0%);fill-opacity:1;" d="M 30.320312 32.675781 C 32.632812 32.675781 34.355469 32.246094 35.449219 31.40625 C 36.53125 30.570312 37.277344 29.128906 37.667969 27.113281 C 38.03125 25.230469 37.890625 23.914062 37.253906 23.203125 C 36.601562 22.480469 35.191406 22.113281 33.058594 22.113281 L 29.363281 22.113281 L 27.316406 32.675781 Z M 18.234375 45.6875 C 18.0625 45.6875 17.898438 45.609375 17.789062 45.476562 C 17.679688 45.34375 17.636719 45.167969 17.667969 45 L 23.097656 17.007812 C 23.152344 16.738281 23.386719 16.542969 23.664062 16.542969 L 35.363281 16.542969 C 39.039062 16.542969 41.777344 17.542969 43.496094 19.515625 C 45.226562 21.5 45.761719 24.273438 45.085938 27.761719 C 44.808594 29.179688 44.335938 30.5 43.675781 31.679688 C 43.019531 32.863281 42.148438 33.957031 41.089844 34.929688 C 39.820312 36.121094 38.386719 36.984375 36.828125 37.492188 C 35.292969 37.992188 33.324219 38.246094 30.972656 38.246094 L 26.234375 38.246094 L 24.882812 45.222656 C 24.832031 45.492188 24.59375 45.6875 24.320312 45.6875 Z M 18.234375 45.6875 "/>
<path style=" stroke:none;fill-rule:nonzero;fill:rgb(100%,100%,100%);fill-opacity:1;" d="M 29.835938 22.6875 L 33.058594 22.6875 C 35.628906 22.6875 36.523438 23.253906 36.828125 23.589844 C 37.332031 24.152344 37.425781 25.332031 37.101562 27.003906 C 36.738281 28.875 36.066406 30.203125 35.097656 30.949219 C 34.109375 31.710938 32.5 32.097656 30.320312 32.097656 L 28.011719 32.097656 Z M 35.363281 15.964844 L 23.664062 15.964844 C 23.113281 15.964844 22.640625 16.355469 22.535156 16.898438 L 17.105469 44.890625 C 17.039062 45.230469 17.128906 45.578125 17.347656 45.84375 C 17.566406 46.109375 17.890625 46.261719 18.234375 46.261719 L 24.316406 46.261719 C 24.867188 46.261719 25.34375 45.871094 25.445312 45.332031 L 26.710938 38.820312 L 30.972656 38.820312 C 33.382812 38.820312 35.414062 38.558594 37.003906 38.039062 C 38.640625 37.503906 40.148438 36.601562 41.480469 35.351562 C 42.582031 34.335938 43.492188 33.195312 44.179688 31.960938 C 44.867188 30.726562 45.363281 29.351562 45.648438 27.871094 C 46.359375 24.199219 45.78125 21.261719 43.929688 19.136719 C 42.09375 17.03125 39.214844 15.964844 35.363281 15.964844 M 26.617188 33.25 L 30.320312 33.25 C 32.773438 33.25 34.597656 32.789062 35.800781 31.863281 C 37 30.933594 37.808594 29.390625 38.230469 27.222656 C 38.632812 25.140625 38.449219 23.675781 37.679688 22.820312 C 36.910156 21.964844 35.371094 21.535156 33.058594 21.535156 L 28.890625 21.535156 L 26.617188 33.25 M 35.363281 17.117188 C 38.882812 17.117188 41.449219 18.042969 43.0625 19.894531 C 44.675781 21.746094 45.164062 24.332031 44.519531 27.648438 C 44.253906 29.015625 43.804688 30.265625 43.175781 31.398438 C 42.542969 32.53125 41.71875 33.566406 40.699219 34.507812 C 39.484375 35.648438 38.132812 36.457031 36.648438 36.941406 C 35.164062 37.425781 33.273438 37.667969 30.972656 37.667969 L 25.761719 37.667969 L 24.316406 45.109375 L 18.234375 45.109375 L 23.664062 17.117188 L 35.363281 17.117188 "/>
<path style=" stroke:none;fill-rule:nonzero;fill:rgb(0%,0%,0%);fill-opacity:1;" d="M 59.035156 38.246094 C 58.863281 38.246094 58.699219 38.167969 58.589844 38.035156 C 58.480469 37.902344 58.4375 37.726562 58.46875 37.558594 L 60.871094 25.171875 C 61.101562 23.996094 61.042969 23.148438 60.714844 22.792969 C 60.511719 22.574219 59.902344 22.207031 58.105469 22.207031 L 53.753906 22.207031 L 50.734375 37.777344 C 50.683594 38.050781 50.445312 38.246094 50.171875 38.246094 L 44.136719 38.246094 C 43.964844 38.246094 43.800781 38.167969 43.691406 38.035156 C 43.582031 37.902344 43.539062 37.726562 43.570312 37.558594 L 49 9.566406 C 49.050781 9.296875 49.289062 9.101562 49.5625 9.101562 L 55.601562 9.101562 C 55.773438 9.101562 55.933594 9.175781 56.042969 9.308594 C 56.152344 9.441406 56.199219 9.617188 56.164062 9.785156 L 54.855469 16.542969 L 59.535156 16.542969 C 63.101562 16.542969 65.515625 17.171875 66.925781 18.46875 C 68.359375 19.789062 68.808594 21.90625 68.257812 24.753906 L 65.730469 37.777344 C 65.679688 38.050781 65.441406 38.246094 65.167969 38.246094 Z M 59.035156 38.246094 "/>
<path style=" stroke:none;fill-rule:nonzero;fill:rgb(100%,100%,100%);fill-opacity:1;" d="M 55.601562 8.523438 L 49.5625 8.523438 C 49.011719 8.523438 48.539062 8.914062 48.433594 9.457031 L 43.007812 37.449219 C 42.941406 37.785156 43.03125 38.136719 43.246094 38.402344 C 43.464844 38.667969 43.792969 38.820312 44.136719 38.820312 L 50.171875 38.820312 C 50.722656 38.820312 51.195312 38.429688 51.300781 37.886719 L 54.230469 22.785156 L 58.105469 22.785156 C 59.898438 22.785156 60.277344 23.167969 60.292969 23.183594 C 60.398438 23.300781 60.542969 23.84375 60.308594 25.0625 L 57.90625 37.449219 C 57.839844 37.785156 57.929688 38.136719 58.148438 38.402344 C 58.367188 38.667969 58.691406 38.820312 59.035156 38.820312 L 65.167969 38.820312 C 65.71875 38.820312 66.191406 38.429688 66.296875 37.886719 L 68.820312 24.863281 C 69.414062 21.804688 68.90625 19.511719 67.316406 18.042969 C 65.796875 16.644531 63.25 15.964844 59.535156 15.964844 L 55.550781 15.964844 L 56.730469 9.894531 C 56.792969 9.558594 56.707031 9.207031 56.488281 8.941406 C 56.269531 8.675781 55.945312 8.523438 55.601562 8.523438 M 55.601562 9.675781 L 54.15625 17.117188 L 59.535156 17.117188 C 62.917969 17.117188 65.253906 17.710938 66.535156 18.894531 C 67.820312 20.074219 68.207031 21.992188 67.691406 24.640625 L 65.167969 37.667969 L 59.035156 37.667969 L 61.4375 25.28125 C 61.710938 23.875 61.609375 22.914062 61.132812 22.402344 C 60.660156 21.886719 59.648438 21.632812 58.105469 21.632812 L 53.28125 21.632812 L 50.171875 37.667969 L 44.136719 37.667969 L 49.5625 9.675781 L 55.601562 9.675781 "/>
<path style=" stroke:none;fill-rule:nonzero;fill:rgb(0%,0%,0%);fill-opacity:1;" d="M 77.808594 32.675781 C 80.121094 32.675781 81.847656 32.246094 82.9375 31.40625 C 84.019531 30.570312 84.765625 29.128906 85.15625 27.113281 C 85.519531 25.230469 85.382812 23.914062 84.742188 23.203125 C 84.089844 22.480469 82.679688 22.113281 80.546875 22.113281 L 76.851562 22.113281 L 74.804688 32.675781 Z M 65.722656 45.6875 C 65.550781 45.6875 65.390625 45.609375 65.28125 45.476562 C 65.171875 45.34375 65.125 45.167969 65.160156 45 L 70.585938 17.007812 C 70.640625 16.738281 70.875 16.542969 71.152344 16.542969 L 82.851562 16.542969 C 86.527344 16.542969 89.265625 17.542969 90.984375 19.515625 C 92.714844 21.5 93.25 24.273438 92.574219 27.761719 C 92.296875 29.179688 91.824219 30.5 91.167969 31.679688 C 90.507812 32.863281 89.636719 33.957031 88.578125 34.929688 C 87.308594 36.121094 85.875 36.984375 84.316406 37.492188 C 82.78125 37.992188 80.8125 38.246094 78.460938 38.246094 L 73.726562 38.246094 L 72.371094 45.222656 C 72.320312 45.492188 72.082031 45.6875 71.808594 45.6875 Z M 65.722656 45.6875 "/>
<path style=" stroke:none;fill-rule:nonzero;fill:rgb(100%,100%,100%);fill-opacity:1;" d="M 77.328125 22.6875 L 80.546875 22.6875 C 83.121094 22.6875 84.011719 23.253906 84.316406 23.589844 C 84.820312 24.152344 84.914062 25.332031 84.589844 27.003906 C 84.226562 28.875 83.554688 30.203125 82.585938 30.949219 C 81.597656 31.710938 79.992188 32.097656 77.808594 32.097656 L 75.503906 32.097656 Z M 82.851562 15.964844 L 71.152344 15.964844 C 70.601562 15.964844 70.128906 16.355469 70.023438 16.898438 L 64.59375 44.890625 C 64.53125 45.230469 64.617188 45.578125 64.835938 45.84375 C 65.054688 46.109375 65.378906 46.261719 65.722656 46.261719 L 71.808594 46.261719 C 72.359375 46.261719 72.832031 45.871094 72.9375 45.332031 L 74.199219 38.820312 L 78.460938 38.820312 C 80.875 38.820312 82.902344 38.558594 84.496094 38.039062 C 86.132812 37.503906 87.636719 36.601562 88.96875 35.351562 C 90.074219 34.335938 90.980469 33.195312 91.667969 31.960938 C 92.355469 30.726562 92.851562 29.351562 93.136719 27.871094 C 93.851562 24.199219 93.269531 21.261719 91.417969 19.136719 C 89.585938 17.03125 86.703125 15.964844 82.851562 15.964844 M 74.105469 33.25 L 77.808594 33.25 C 80.261719 33.25 82.089844 32.789062 83.289062 31.863281 C 84.488281 30.933594 85.300781 29.390625 85.71875 27.222656 C 86.125 25.140625 85.941406 23.675781 85.171875 22.820312 C 84.398438 21.964844 82.859375 21.535156 80.546875 21.535156 L 76.378906 21.535156 L 74.105469 33.25 M 82.851562 17.117188 C 86.371094 17.117188 88.9375 18.042969 90.554688 19.894531 C 92.167969 21.746094 92.652344 24.332031 92.007812 27.648438 C 91.742188 29.015625 91.296875 30.265625 90.664062 31.398438 C 90.03125 32.53125 89.207031 33.566406 88.1875 34.507812 C 86.972656 35.648438 85.625 36.457031 84.140625 36.941406 C 82.652344 37.425781 80.761719 37.667969 78.460938 37.667969 L 73.25 37.667969 L 71.808594 45.109375 L 65.722656 45.109375 L 71.152344 17.117188 L 82.851562 17.117188 "/>
</g>
</svg>
