<?xml version="1.0" encoding="UTF-8"?>
<svg xmlns="http://www.w3.org/2000/svg" xmlns:xlink="http://www.w3.org/1999/xlink" width="110pt" height="83pt" viewBox="0 0 110 83" version="1.1">
<g id="surface1">
<path style=" stroke:none;fill-rule:nonzero;fill:rgb(80.392157%,40.392157%,60%);fill-opacity:1;" d="M 94.660156 47.703125 C 90.824219 47.722656 87.488281 48.652344 84.699219 50.023438 C 83.675781 47.984375 82.652344 46.167969 82.46875 44.832031 C 82.269531 43.277344 82.027344 42.328125 82.269531 40.46875 C 82.511719 38.609375 83.59375 35.964844 83.574219 35.761719 C 83.554688 35.5625 83.332031 34.609375 81.125 34.589844 C 78.914062 34.570312 77.007812 35.015625 76.789062 35.601562 C 76.566406 36.1875 76.144531 37.519531 75.863281 38.894531 C 75.480469 40.914062 71.445312 48.125 69.136719 51.902344 C 68.394531 50.429688 67.75 49.136719 67.609375 48.105469 C 67.410156 46.550781 67.167969 45.601562 67.410156 43.742188 C 67.652344 41.882812 68.734375 39.238281 68.714844 39.035156 C 68.695312 38.832031 68.472656 37.882812 66.265625 37.863281 C 64.054688 37.84375 62.148438 38.289062 61.925781 38.875 C 61.707031 39.460938 61.464844 40.832031 61.003906 42.167969 C 60.542969 43.5 55.179688 55.539062 53.773438 58.652344 C 53.050781 60.246094 52.429688 61.519531 51.988281 62.390625 C 51.988281 62.390625 51.96875 62.449219 51.90625 62.550781 C 51.527344 63.296875 51.304688 63.703125 51.304688 63.703125 C 51.304688 63.703125 51.304688 63.703125 51.304688 63.722656 C 51.003906 64.269531 50.683594 64.773438 50.523438 64.773438 C 50.402344 64.773438 50.179688 63.316406 50.5625 61.339844 C 51.367188 57.15625 53.273438 50.652344 53.253906 50.429688 C 53.253906 50.308594 53.613281 49.175781 52.007812 48.589844 C 50.441406 48.003906 49.878906 48.976562 49.738281 48.976562 C 49.597656 48.976562 49.496094 49.316406 49.496094 49.316406 C 49.496094 49.316406 51.246094 42.003906 46.164062 42.003906 C 42.992188 42.003906 38.613281 45.5 36.445312 48.652344 C 35.082031 49.398438 32.167969 50.996094 29.054688 52.710938 C 27.871094 53.378906 26.648438 54.046875 25.503906 54.671875 C 25.421875 54.589844 25.339844 54.488281 25.261719 54.410156 C 19.117188 47.804688 7.75 43.136719 8.234375 34.269531 C 8.414062 31.035156 9.519531 22.550781 30.058594 12.246094 C 46.96875 3.863281 60.421875 6.1875 62.75 11.339844 C 66.085938 18.691406 55.542969 32.347656 38.074219 34.328125 C 31.40625 35.074219 27.910156 32.488281 27.027344 31.519531 C 26.105469 30.511719 25.964844 30.449219 25.621094 30.652344 C 25.058594 30.953125 25.421875 31.863281 25.621094 32.390625 C 26.144531 33.761719 28.292969 36.1875 31.925781 37.378906 C 35.140625 38.429688 42.953125 39.015625 52.410156 35.339844 C 62.992188 31.21875 71.265625 19.761719 68.835938 10.167969 C 66.40625 0.429688 50.339844 -2.78125 35.140625 2.652344 C 26.105469 5.882812 16.304688 10.976562 9.257812 17.601562 C 0.882812 25.480469 -0.441406 32.328125 0.101562 35.195312 C 2.046875 45.378906 16.003906 52.003906 21.585938 56.914062 C 21.304688 57.074219 21.042969 57.21875 20.824219 57.339844 C 18.03125 58.730469 7.390625 64.328125 4.738281 70.246094 C 1.726562 76.953125 5.222656 81.761719 7.53125 82.410156 C 14.699219 84.410156 22.066406 80.8125 26.023438 74.875 C 29.980469 68.933594 29.496094 61.21875 27.671875 57.683594 C 27.652344 57.640625 27.628906 57.601562 27.589844 57.5625 C 28.3125 57.136719 29.054688 56.691406 29.777344 56.269531 C 31.203125 55.417969 32.609375 54.632812 33.816406 53.984375 C 33.132812 55.863281 32.628906 58.105469 32.390625 61.339844 C 32.089844 65.136719 33.632812 70.066406 35.664062 72.003906 C 36.566406 72.855469 37.628906 72.875 38.3125 72.875 C 40.683594 72.875 41.746094 70.894531 42.933594 68.550781 C 44.378906 65.683594 45.683594 62.347656 45.683594 62.347656 C 45.683594 62.347656 44.054688 71.359375 48.472656 71.359375 C 50.082031 71.359375 51.707031 69.257812 52.429688 68.1875 C 52.429688 68.207031 52.429688 68.207031 52.429688 68.207031 C 52.429688 68.207031 52.46875 68.144531 52.550781 68.003906 C 52.710938 67.742188 52.8125 67.582031 52.8125 67.582031 C 52.8125 67.582031 52.8125 67.5625 52.8125 67.539062 C 53.453125 66.410156 54.898438 63.84375 57.046875 59.582031 C 59.820312 54.085938 62.488281 47.21875 62.488281 47.21875 C 62.488281 47.21875 62.730469 48.894531 63.554688 51.683594 C 64.035156 53.316406 65.039062 55.117188 65.84375 56.855469 C 65.199219 57.761719 64.800781 58.269531 64.800781 58.269531 C 64.800781 58.269531 64.800781 58.269531 64.820312 58.289062 C 64.296875 58.976562 63.734375 59.722656 63.113281 60.449219 C 60.921875 63.074219 58.3125 66.085938 57.953125 66.953125 C 57.53125 67.984375 57.628906 68.730469 58.433594 69.339844 C 59.015625 69.78125 60.058594 69.84375 61.125 69.78125 C 63.09375 69.640625 64.476562 69.15625 65.160156 68.855469 C 66.226562 68.46875 67.46875 67.882812 68.632812 67.015625 C 70.78125 65.417969 72.089844 63.136719 71.96875 60.125 C 71.90625 58.46875 71.367188 56.8125 70.703125 55.257812 C 70.902344 54.976562 71.085938 54.691406 71.285156 54.410156 C 74.679688 49.417969 77.308594 43.945312 77.308594 43.945312 C 77.308594 43.945312 77.550781 45.621094 78.375 48.410156 C 78.773438 49.824219 79.597656 51.359375 80.320312 52.855469 C 77.128906 55.460938 75.160156 58.488281 74.457031 60.46875 C 73.191406 64.144531 74.175781 65.804688 76.042969 66.1875 C 76.886719 66.367188 78.09375 65.964844 78.976562 65.582031 C 80.101562 65.21875 81.425781 64.589844 82.691406 63.660156 C 84.839844 62.066406 86.90625 59.84375 86.789062 56.832031 C 86.726562 55.460938 86.367188 54.105469 85.863281 52.792969 C 88.574219 51.660156 92.066406 51.035156 96.527344 51.5625 C 106.085938 52.691406 107.972656 58.691406 107.609375 61.21875 C 107.25 63.742188 105.242188 65.117188 104.578125 65.539062 C 103.914062 65.964844 103.695312 66.105469 103.753906 66.410156 C 103.835938 66.855469 104.15625 66.832031 104.71875 66.753906 C 105.503906 66.609375 109.738281 64.710938 109.917969 60.066406 C 110.222656 54.125 104.597656 47.640625 94.660156 47.703125 Z M 20.921875 72.710938 C 17.75 76.1875 13.332031 77.5 11.425781 76.390625 C 9.378906 75.195312 10.179688 70.066406 14.078125 66.390625 C 16.445312 64.144531 19.496094 62.066406 21.527344 60.792969 C 21.988281 60.511719 22.671875 60.105469 23.492188 59.601562 C 23.632812 59.519531 23.714844 59.480469 23.714844 59.480469 C 23.875 59.378906 24.035156 59.277344 24.195312 59.175781 C 25.621094 64.429688 24.257812 69.054688 20.921875 72.710938 Z M 44.015625 56.914062 C 42.910156 59.621094 40.601562 66.550781 39.195312 66.167969 C 37.992188 65.84375 37.25 60.589844 38.957031 55.398438 C 39.820312 52.792969 41.648438 49.683594 42.710938 48.46875 C 44.4375 46.53125 46.34375 45.882812 46.808594 46.671875 C 47.390625 47.703125 44.699219 55.21875 44.015625 56.914062 Z M 63.074219 66.085938 C 62.609375 66.328125 62.167969 66.488281 61.96875 66.367188 C 61.828125 66.289062 62.167969 65.964844 62.167969 65.964844 C 62.167969 65.964844 64.558594 63.378906 65.503906 62.207031 C 66.042969 61.519531 66.6875 60.710938 67.371094 59.804688 C 67.371094 59.882812 67.371094 59.984375 67.371094 60.066406 C 67.371094 63.15625 64.398438 65.238281 63.074219 66.085938 Z M 77.769531 62.710938 C 77.429688 62.46875 77.488281 61.660156 78.632812 59.136719 C 79.078125 58.144531 80.121094 56.488281 81.90625 54.894531 C 82.109375 55.539062 82.25 56.167969 82.230469 56.753906 C 82.207031 60.652344 79.4375 62.105469 77.769531 62.710938 Z M 77.769531 62.710938 "/>
</g>
</svg>
