<?xml version="1.0" encoding="UTF-8"?>
<svg xmlns="http://www.w3.org/2000/svg" xmlns:xlink="http://www.w3.org/1999/xlink" width="40pt" height="40pt" viewBox="0 0 40 40" version="1.1">
<g id="surface1">
<path style=" stroke:none;fill-rule:evenodd;fill:rgb(0%,0%,0%);fill-opacity:1;" d="M 0 0 L 0 40 L 40 40 L 40 0 Z M 33.363281 26.546875 C 33.023438 28.019531 31.816406 29.105469 30.367188 29.269531 C 26.9375 29.652344 23.460938 29.652344 20 29.652344 C 16.539062 29.652344 13.0625 29.652344 9.628906 29.269531 C 8.179688 29.105469 6.976562 28.019531 6.636719 26.546875 C 6.152344 24.449219 6.152344 22.160156 6.152344 20 C 6.152344 17.839844 6.160156 15.550781 6.640625 13.453125 C 6.980469 11.980469 8.183594 10.894531 9.632812 10.734375 C 13.066406 10.347656 16.542969 10.347656 20.003906 10.347656 C 23.464844 10.347656 26.941406 10.347656 30.375 10.734375 C 31.824219 10.894531 33.027344 11.980469 33.367188 13.453125 C 33.851562 15.550781 33.847656 17.839844 33.847656 20 C 33.847656 22.160156 33.84375 24.449219 33.363281 26.546875 Z M 33.363281 26.546875 "/>
<path style=" stroke:none;fill-rule:evenodd;fill:rgb(0%,0%,0%);fill-opacity:1;" d="M 16.425781 24.296875 C 19.367188 22.773438 22.285156 21.261719 25.230469 19.734375 C 22.277344 18.191406 19.359375 16.671875 16.425781 15.140625 Z M 16.425781 24.296875 "/>
</g>
</svg>
