<svg xmlns="http://www.w3.org/2000/svg" width="110pt" height="110pt" viewBox="0 0 110 110"><path d="M110 91.668C110 101.75 101.75 110 91.668 110H18.332C8.25 110 0 101.75 0 91.668V18.332C0 8.25 8.25 0 18.332 0h73.336C101.75 0 110 8.25 110 18.332zm0 0" fill="#563d7c"/><path d="M29.89 23.906h31.184c5.754 0 10.371 1.313 13.84 3.953 3.469 2.641 5.215 6.614 5.215 11.953 0 3.235-.793 6.004-2.375 8.305-1.582 2.301-3.844 4.098-6.793 5.356v.18c3.953.843 6.957 2.714 8.988 5.609 2.031 2.91 3.055 6.539 3.055 10.925 0 2.516-.45 4.872-1.348 7.047-.898 2.192-2.3 4.079-4.226 5.66-1.922 1.583-4.368 2.84-7.368 3.778-3.003.933-6.562 1.398-10.695 1.398H29.891zm11.235 26.871h18.332c2.695 0 4.941-.757 6.742-2.3 1.797-1.547 2.696-3.739 2.696-6.618 0-3.234-.81-5.515-2.426-6.828-1.617-1.312-3.957-1.976-7.012-1.976H41.125zm0 28.13h19.86c3.413 0 6.074-.884 7.945-2.66 1.886-1.763 2.84-4.278 2.84-7.517 0-3.18-.934-5.605-2.84-7.332-1.907-1.726-4.532-2.55-7.946-2.55H41.125zm0 0" fill="#fff"/></svg>