<svg xmlns="http://www.w3.org/2000/svg" width="40pt" height="40pt" viewBox="0 0 40 40"><g fill-rule="evenodd"><path d="M26.86 9.168H13.14a3.976 3.976 0 00-3.972 3.973v13.718a3.976 3.976 0 003.973 3.973h13.718a3.976 3.976 0 003.973-3.973V13.141a3.976 3.976 0 00-3.973-3.973zM20 27.133A7.14 7.14 0 0112.867 20 7.14 7.14 0 0120 12.867 7.14 7.14 0 0127.133 20 7.14 7.14 0 0120 27.133zm7.36-12.79a1.69 1.69 0 01-1.688-1.687c0-.93.758-1.687 1.687-1.687.93 0 1.688.758 1.688 1.687a1.69 1.69 0 01-1.688 1.688zm0 0"/><path d="M20 15.883A4.123 4.123 0 0015.883 20 4.123 4.123 0 0020 24.117 4.123 4.123 0 0024.117 20 4.123 4.123 0 0020 15.883zm0 0"/><path d="M0 0v40h40V0zm33.844 26.86a6.992 6.992 0 01-6.985 6.984H13.141a6.992 6.992 0 01-6.985-6.985V13.141a6.992 6.992 0 016.985-6.985h13.718a6.992 6.992 0 016.985 6.985zm0 0"/></g></svg>