<svg xmlns="http://www.w3.org/2000/svg" width="110pt" height="110pt" viewBox="0 0 110 110"><path d="M8.273 27.656c-9.48 13.621-8.3 31.348-1.058 45.82.172.348.351.688.527 1.032l.34.652.211.375.379.676c.223.394.453.789.691 1.184l.395.652c.262.422.527.836.8 1.254l.34.527c.38.563.766 1.125 1.165 1.676l.035.043.195.266c.344.472.7.945 1.059 1.406l.398.508c.32.402.645.804.977 1.203l.375.445c.445.527.898 1.047 1.363 1.559l.027.027.051.059c.453.496.918.976 1.387 1.46l.445.45c.363.363.73.722 1.105 1.082l.454.43c.496.472 1 .93 1.515 1.382l.024.02.265.222c.453.395.914.782 1.375 1.164l.57.454c.38.304.766.605 1.149.898l.613.465c.43.316.856.625 1.29.926l.468.332.129.093c.41.282.832.555 1.254.825l.539.363c.645.406 1.297.809 1.96 1.2l.54.304c.488.281.977.555 1.469.824.27.145.543.281.816.418.348.184.695.371 1.05.547l.243.117.434.211c.55.262 1.105.52 1.664.77l.355.16c.64.277 1.29.55 1.942.808l.476.184c.602.234 1.219.465 1.832.68l.23.082c.676.234 1.36.453 2.048.668l.496.148c.699.211 1.39.461 2.11.594 45.839 8.36 59.155-27.543 59.155-27.543C94.762 92.324 74.91 96.168 56.102 91.89c-.711-.16-1.403-.383-2.098-.59l-.524-.156c-.68-.211-1.351-.43-2.02-.66l-.276-.102a48.906 48.906 0 01-1.786-.66l-.5-.196a55.277 55.277 0 01-1.921-.8l-.383-.168c-.547-.25-1.086-.5-1.625-.758l-.469-.223c-.422-.207-.84-.426-1.258-.64-.277-.149-.558-.286-.836-.438a51.204 51.204 0 01-1.504-.844l-.507-.285a58.352 58.352 0 01-1.961-1.2l-.528-.35c-.468-.305-.937-.61-1.394-.93l-.45-.313c-.445-.316-.882-.633-1.32-.953l-.582-.441c-.398-.309-.797-.614-1.187-.934l-.532-.422c-.5-.414-.996-.824-1.484-1.25l-.16-.137a76.983 76.983 0 01-1.559-1.414l-.437-.422a59.545 59.545 0 01-1.121-1.097l-.438-.438c-.465-.48-.926-.965-1.37-1.453l-.071-.074a59.195 59.195 0 01-1.39-1.582l-.368-.434c-.336-.41-.672-.824-1-1.238l-.367-.457a83.73 83.73 0 01-1.16-1.543C11.074 54.047 7.324 34.402 15.668 18.27m22.027-2.09c-6.855 9.864-6.484 23.067-1.136 33.5a43.638 43.638 0 003.03 5.06c1.028 1.472 2.169 3.226 3.532 4.406a39.354 39.354 0 001.535 1.597l.407.399c.511.5 1.03.984 1.57 1.46l.066.055.016.016a46.071 46.071 0 001.832 1.52l.418.324c.625.48 1.265.949 1.918 1.402l.054.039c.29.2.586.387.88.578l.413.274c.47.3.942.593 1.422.875l.203.117c.415.238.836.472 1.258.703l.446.23c.293.153.582.309.879.457l.132.059c.606.297 1.215.586 1.836.855l.407.168c.5.211 1 .418 1.503.61l.645.238a52.4 52.4 0 001.383.48l.625.2c.656.203 1.308.46 1.996.578 35.39 5.863 43.562-21.387 43.562-21.387-7.363 10.606-21.629 15.668-36.847 11.715a38.193 38.193 0 01-2.008-.578l-.602-.195a42.309 42.309 0 01-1.402-.48l-.633-.24a41.917 41.917 0 01-1.508-.609l-.406-.171a41.857 41.857 0 01-1.848-.856 44.9 44.9 0 01-.925-.473l-.535-.273a40.44 40.44 0 01-1.168-.664l-.282-.156c-.48-.282-.953-.57-1.418-.867l-.43-.286a37.37 37.37 0 01-.917-.609c-.653-.45-1.29-.922-1.914-1.398l-.43-.34C48.59 49.254 43.309 42.062 40.8 33.914c-2.633-8.453-2.067-17.945 2.492-25.644m19.148-.668C58.398 13.55 58 20.934 60.805 27.504c2.957 6.973 9.015 12.437 16.09 15.035.289.106.582.203.878.3l.387.126c.414.129.828.281 1.262.363 19.539 3.777 24.84-10.027 26.25-12.058-4.64 6.683-12.445 8.289-22.02 5.964a25.184 25.184 0 01-2.316-.714 29.11 29.11 0 01-2.75-1.141 28.71 28.71 0 01-4.824-2.945c-8.567-6.5-13.887-18.899-8.297-29" fill="#0868ac"/></svg>