<svg xmlns="http://www.w3.org/2000/svg" width="161pt" height="110pt" viewBox="0 0 161 110"><path d="M37.898 100.414h-6.082c-.214-10.328-.808-20.043-1.777-29.14h-.055l-9.257 29.14h-4.633L6.89 71.274h-.055c-.684 8.738-1.113 18.449-1.29 29.14H0c.36-13 1.254-25.187 2.691-36.566h7.536l8.777 26.867h.05l8.833-26.867h7.21c1.579 13.324 2.512 25.515 2.798 36.566m26.382-26.977c-2.476 13.52-5.742 23.348-9.797 29.477-3.16 4.723-6.62 7.086-10.39 7.086-1.004 0-2.242-.305-3.711-.91v-3.258c.719.106 1.559.16 2.527.16 1.758 0 3.176-.488 4.254-1.465 1.293-1.187 1.938-2.523 1.938-4.007 0-1.012-.504-3.086-1.508-6.227l-6.676-20.856h5.977l4.789 15.598c1.078 3.543 1.527 6.016 1.347 7.422 2.621-7.039 4.45-14.715 5.493-23.02h5.757" fill="#00758f"/><path d="M90.922 90.277c0 3.102-1.133 5.649-3.39 7.641-2.259 1.98-5.294 2.977-9.094 2.977-3.555 0-7-1.145-10.336-3.415l1.562-3.14c2.871 1.445 5.469 2.164 7.8 2.164 2.188 0 3.903-.488 5.141-1.457 1.239-.977 1.977-2.336 1.977-4.063 0-2.168-1.504-4.023-4.266-5.582-2.546-1.406-7.64-4.347-7.64-4.347-2.762-2.024-4.145-4.2-4.145-7.778 0-2.965 1.031-5.359 3.094-7.18 2.066-1.824 4.73-2.738 7.992-2.738 3.375 0 6.442.907 9.207 2.711l-1.406 3.14c-2.363-1.01-4.695-1.515-6.992-1.515-1.864 0-3.301.45-4.305 1.356-1.008.898-1.629 2.054-1.629 3.465 0 2.164 1.54 4.043 4.375 5.632 2.582 1.407 7.801 4.403 7.801 4.403 2.836 2.02 4.254 4.176 4.254 7.726" fill="#f29111"/><path d="M101.793 93.098c-1.473-2.383-2.211-6.207-2.211-11.48 0-9.208 2.785-13.813 8.344-13.813 2.91 0 5.043 1.101 6.41 3.3 1.469 2.387 2.207 6.176 2.207 11.38 0 9.277-2.785 13.921-8.344 13.921-2.91 0-5.043-1.101-6.406-3.308m21.64 8.199l-6.68-3.317a12.437 12.437 0 001.673-1.632c2.836-3.356 4.254-8.32 4.254-14.891 0-12.098-4.72-18.148-14.157-18.148-4.632 0-8.238 1.53-10.824 4.605-2.836 3.356-4.25 8.305-4.25 14.84 0 6.43 1.254 11.144 3.766 14.137 2.289 2.707 5.75 4.062 10.383 4.062 1.73 0 3.316-.215 4.757-.64l8.7 5.093 2.37-4.11" fill-rule="evenodd" fill="#f29111"/><path d="M145.234 100.414h-17.277V63.848h5.813v32.066h11.464zm4.149-.004h.96v-3.719h1.262v-.761h-3.535v.761h1.313zm7.328 0h.91v-4.48h-1.367l-1.11 3.054-1.21-3.054h-1.317v4.48h.86V97h.046l1.27 3.41h.652l1.266-3.41zm0 0" fill="#f29111"/><path d="M152.535 51.602c-3.515-.09-6.238.265-8.52 1.238-.66.265-1.71.265-1.8 1.105.351.352.394.926.703 1.414.527.883 1.45 2.075 2.285 2.692.922.71 1.844 1.414 2.809 2.031 1.71 1.066 3.644 1.68 5.312 2.742.969.617 1.93 1.41 2.899 2.078.48.352.785.926 1.402 1.145v-.133c-.309-.398-.395-.973-.7-1.414-.44-.441-.878-.84-1.32-1.281-1.273-1.723-2.855-3.223-4.562-4.457-1.406-.977-4.48-2.301-5.05-3.934l-.09-.09c.968-.09 2.109-.441 3.03-.71 1.493-.395 2.852-.305 4.391-.704.703-.176 1.403-.398 2.11-.617v-.402c-.793-.793-1.364-1.852-2.196-2.606-2.238-1.941-4.699-3.84-7.246-5.433-1.363-.883-3.117-1.453-4.57-2.207-.524-.266-1.399-.399-1.707-.84-.793-.973-1.235-2.254-1.8-3.403-1.274-2.425-2.505-5.12-3.602-7.687-.79-1.723-1.274-3.445-2.239-5.035-4.523-7.512-9.441-12.059-16.992-16.524-1.625-.93-3.555-1.324-5.617-1.812-1.102-.047-2.195-.133-3.293-.176-.703-.309-1.41-1.148-2.024-1.547-2.503-1.59-8.953-5.035-10.796-.484-1.188 2.87 1.753 5.699 2.765 7.156.746 1.016 1.711 2.164 2.238 3.313.305.75.395 1.546.704 2.343.699 1.942 1.359 4.11 2.28 5.918.485.93 1.009 1.903 1.626 2.739.351.488.965.707 1.097 1.503-.613.883-.66 2.207-1.011 3.313-1.578 4.992-.965 11.18 1.273 14.844.703 1.105 2.371 3.535 4.614 2.605 1.972-.793 1.535-3.312 2.105-5.52.133-.535.043-.882.305-1.238v.09c.617 1.235 1.23 2.426 1.8 3.668 1.364 2.16 3.735 4.414 5.711 5.918 1.051.797 1.887 2.164 3.204 2.652v-.132h-.086c-.266-.399-.66-.578-1.012-.883-.79-.797-1.664-1.77-2.281-2.653-1.844-2.472-3.473-5.214-4.918-8.039-.704-1.375-1.317-2.875-1.891-4.242-.262-.531-.262-1.328-.7-1.59-.66.97-1.624 1.809-2.109 3-.832 1.903-.921 4.243-1.23 6.672-.176.047-.086 0-.176.09-1.402-.355-1.883-1.812-2.414-3.043-1.316-3.14-1.535-8.18-.394-11.8.304-.926 1.628-3.844 1.097-4.727-.265-.844-1.14-1.324-1.625-1.988-.566-.84-1.187-1.899-1.578-2.829-1.055-2.472-1.586-5.214-2.723-7.687-.527-1.149-1.449-2.344-2.195-3.402-.836-1.192-1.758-2.032-2.414-3.446-.219-.484-.527-1.281-.176-1.808.086-.356.262-.489.617-.578.567-.485 2.192.132 2.762.398 1.625.66 2.988 1.281 4.348 2.207.613.445 1.273 1.281 2.062 1.504h.922c1.406.309 2.989.086 4.305.488 2.324.75 4.433 1.852 6.32 3.047 5.75 3.668 10.492 8.883 13.696 15.11.527 1.015.75 1.945 1.234 3 .922 2.171 2.062 4.378 2.984 6.5.922 2.074 1.801 4.195 3.121 5.917.657.926 3.29 1.414 4.477 1.899.875.398 2.238.75 3.027 1.238 1.492.926 2.985 1.988 4.39 3.004.704.531 2.9 1.633 3.032 2.52" fill-rule="evenodd" fill="#00758f"/><path d="M107.75 13.203a7 7 0 00-1.8.223v.09h.085c.356.703.969 1.195 1.406 1.812.352.707.66 1.41 1.012 2.121l.082-.09c.621-.441.93-1.148.93-2.21-.266-.31-.309-.618-.531-.93-.262-.438-.832-.66-1.184-1.016" fill-rule="evenodd" fill="#00758f"/></svg>