<svg xmlns="http://www.w3.org/2000/svg" width="109pt" height="59pt" viewBox="0 0 109 59"><defs><clipPath id="a"><path d="M1 1h107v57H1zm0 0"/></clipPath><clipPath id="b"><path d="M1.531 29.469c0 15.426 23.723 27.933 52.985 27.933 29.261 0 52.98-12.507 52.98-27.933S83.777 1.535 54.516 1.535C25.254 1.535 1.53 14.043 1.53 29.47"/></clipPath><radialGradient id="c" gradientUnits="userSpaceOnUse" cx="0" cy="0" fx="0" fy="0" r="1" gradientTransform="matrix(69.57333 0 0 69.72791 33.344 11.357)"><stop offset="0" stop-color="#aeb2d5"/><stop offset=".3" stop-color="#aeb2d5"/><stop offset=".75" stop-color="#484c89"/><stop offset="1" stop-color="#484c89"/></radialGradient></defs><g clip-path="url(#a)"><g clip-path="url(#b)"><path d="M1.531 29.469c0 15.426 23.723 27.933 52.985 27.933 29.261 0 52.98-12.507 52.98-27.933S83.777 1.535 54.516 1.535C25.254 1.535 1.53 14.043 1.53 29.47" fill="url(#c)"/></g></g><path d="M54.516 55.328c28.117 0 50.914-11.578 50.914-25.86 0-14.28-22.797-25.859-50.914-25.859-28.118 0-50.914 11.579-50.914 25.86 0 14.281 22.796 25.86 50.914 25.86" fill="#777bb3"/><path d="M30.32 32.676c2.313 0 4.035-.43 5.13-1.27 1.081-.836 1.827-2.277 2.218-4.293.363-1.883.223-3.199-.414-3.91-.652-.723-2.063-1.09-4.195-1.09h-3.696l-2.047 10.563zM18.234 45.687a.579.579 0 01-.566-.687l5.43-27.992a.577.577 0 01.566-.465h11.7c3.675 0 6.413 1 8.132 2.973 1.73 1.984 2.266 4.757 1.59 8.246a13.188 13.188 0 01-1.41 3.918 12.968 12.968 0 01-2.586 3.25c-1.27 1.191-2.703 2.054-4.262 2.562-1.535.5-3.504.754-5.855.754h-4.739l-1.351 6.977a.573.573 0 01-.563.465zm0 0"/><path d="M29.836 22.688h3.223c2.57 0 3.464.566 3.77.902.503.562.597 1.742.273 3.414-.364 1.871-1.036 3.2-2.004 3.945-.989.762-2.598 1.149-4.778 1.149h-2.308zm5.527-6.723H23.664c-.55 0-1.023.39-1.129.933l-5.43 27.993a1.15 1.15 0 001.13 1.37h6.081c.551 0 1.028-.39 1.13-.929l1.265-6.512h4.262c2.41 0 4.441-.261 6.03-.78 1.638-.536 3.145-1.438 4.477-2.688a13.688 13.688 0 002.7-3.391 13.712 13.712 0 001.468-4.09c.711-3.672.133-6.61-1.718-8.734-1.836-2.106-4.715-3.172-8.567-3.172M26.617 33.25h3.703c2.453 0 4.278-.46 5.48-1.387 1.2-.93 2.009-2.472 2.43-4.64.403-2.082.22-3.547-.55-4.403-.77-.855-2.309-1.285-4.621-1.285H28.89L26.617 33.25m8.746-16.133c3.52 0 6.086.926 7.7 2.778 1.613 1.851 2.101 4.437 1.457 7.753a12.637 12.637 0 01-1.344 3.75 12.564 12.564 0 01-2.477 3.11c-1.215 1.14-2.566 1.949-4.05 2.433-1.485.485-3.376.727-5.676.727h-5.211l-1.446 7.441h-6.082l5.43-27.992h11.7" fill="#fff"/><path d="M59.035 38.246a.579.579 0 01-.566-.687l2.402-12.387c.23-1.176.172-2.024-.156-2.379-.203-.219-.813-.586-2.61-.586h-4.351l-3.02 15.57a.573.573 0 01-.562.47h-6.035a.579.579 0 01-.567-.688L49 9.566c.05-.27.29-.464.563-.464h6.039a.57.57 0 01.563.684l-1.31 6.757h4.68c3.567 0 5.98.629 7.39 1.926 1.434 1.32 1.884 3.437 1.333 6.285L65.73 37.777a.573.573 0 01-.562.47zm0 0"/><path d="M55.602 8.523h-6.04a1.15 1.15 0 00-1.128.934l-5.426 27.992a1.16 1.16 0 00.238.953c.219.266.547.418.89.418h6.036c.55 0 1.023-.39 1.129-.933l2.93-15.102h3.874c1.793 0 2.172.383 2.188.399.105.117.25.66.016 1.878L57.906 37.45a1.153 1.153 0 001.13 1.371h6.132c.55 0 1.023-.39 1.129-.933l2.523-13.024c.594-3.058.086-5.351-1.504-6.82-1.52-1.398-4.066-2.078-7.78-2.078H55.55l1.18-6.07a1.166 1.166 0 00-.243-.954 1.146 1.146 0 00-.886-.418m0 1.153l-1.446 7.441h5.38c3.382 0 5.718.594 7 1.778 1.284 1.18 1.671 3.097 1.155 5.746l-2.523 13.027h-6.133l2.403-12.387c.273-1.406.171-2.367-.305-2.879-.473-.515-1.485-.77-3.028-.77H53.28l-3.11 16.036h-6.034l5.425-27.992h6.04" fill="#fff"/><path d="M77.809 32.676c2.312 0 4.039-.43 5.129-1.27 1.082-.836 1.828-2.277 2.218-4.293.364-1.883.227-3.199-.414-3.91-.652-.723-2.062-1.09-4.195-1.09h-3.695l-2.047 10.563zM65.723 45.687a.571.571 0 01-.442-.21.57.57 0 01-.12-.477l5.425-27.992a.577.577 0 01.566-.465h11.7c3.675 0 6.414 1 8.132 2.973 1.73 1.984 2.266 4.757 1.59 8.246a13.292 13.292 0 01-1.406 3.918 13.073 13.073 0 01-2.59 3.25c-1.27 1.191-2.703 2.054-4.262 2.562-1.535.5-3.504.754-5.855.754h-4.734l-1.356 6.977a.573.573 0 01-.562.465zm0 0"/><path d="M77.328 22.688h3.219c2.574 0 3.465.566 3.77.902.503.562.597 1.742.273 3.414-.363 1.871-1.035 3.2-2.004 3.945-.988.762-2.594 1.149-4.777 1.149h-2.305zm5.524-6.723h-11.7c-.55 0-1.023.39-1.129.933l-5.43 27.993a1.149 1.149 0 001.13 1.371h6.086c.55 0 1.023-.39 1.129-.93l1.261-6.512h4.262c2.414 0 4.441-.261 6.035-.78 1.637-.536 3.14-1.438 4.473-2.688a13.599 13.599 0 002.699-3.391 13.712 13.712 0 001.469-4.09c.715-3.672.133-6.61-1.719-8.734-1.832-2.106-4.715-3.172-8.566-3.172M74.105 33.25h3.704c2.453 0 4.28-.46 5.48-1.387 1.2-.93 2.012-2.472 2.43-4.64.406-2.082.222-3.547-.547-4.403-.774-.855-2.313-1.285-4.625-1.285h-4.168L74.105 33.25m8.747-16.133c3.52 0 6.085.926 7.703 2.778 1.613 1.851 2.097 4.437 1.453 7.753-.266 1.368-.711 2.618-1.344 3.75a12.564 12.564 0 01-2.477 3.11c-1.214 1.14-2.562 1.949-4.046 2.433-1.489.485-3.38.727-5.68.727H73.25l-1.441 7.441h-6.086l5.43-27.992h11.699" fill="#fff"/></svg>