<svg width="167" height="27" fill="none" xmlns="http://www.w3.org/2000/svg"><path d="M12.085 3.213c.3-.92 1.602-.92 1.902 0l1.751 5.374a1 1 0 00.95.69h5.662c.969 0 1.371 1.242.586 1.81l-4.575 3.315a1 1 0 00-.364 1.12l1.749 5.366c.3.921-.753 1.688-1.538 1.12l-4.585-3.322a1 1 0 00-1.174 0l-4.585 3.322c-.784.568-1.838-.199-1.538-1.12l1.749-5.366a1 1 0 00-.364-1.12l-4.575-3.314c-.785-.57-.383-1.81.587-1.81h5.66a1 1 0 00.951-.69l1.751-5.375zm35.097 0c.3-.92 1.602-.92 1.902 0l1.75 5.374a1 1 0 00.952.69h5.66c.97 0 1.372 1.242.587 1.81l-4.575 3.315a1 1 0 00-.364 1.12l1.749 5.366c.3.921-.754 1.688-1.538 1.12l-4.585-3.322a1 1 0 00-1.174 0l-4.585 3.322c-.785.568-1.838-.199-1.538-1.12l1.749-5.366a1 1 0 00-.364-1.12l-4.575-3.314c-.785-.57-.383-1.81.587-1.81h5.66a1 1 0 00.951-.69l1.751-5.375zm35.098 0c.3-.92 1.601-.92 1.901 0l1.751 5.374a1 1 0 00.95.69h5.662c.969 0 1.371 1.242.586 1.81l-4.575 3.315a1 1 0 00-.364 1.12l1.749 5.366c.3.921-.753 1.688-1.538 1.12l-4.585-3.322a1 1 0 00-1.173 0l-4.586 3.322c-.784.568-1.838-.199-1.538-1.12l1.749-5.366a1 1 0 00-.364-1.12l-4.575-3.314c-.785-.57-.383-1.81.587-1.81h5.66a1 1 0 00.951-.69l1.751-5.375zm35.097 0c.299-.92 1.601-.92 1.901 0l1.751 5.374a1 1 0 00.951.69h5.661c.969 0 1.372 1.242.587 1.81l-4.575 3.315a.998.998 0 00-.364 1.12l1.748 5.366c.3.921-.753 1.688-1.537 1.12l-4.586-3.322a1 1 0 00-1.173 0l-4.586 3.322c-.784.568-1.837-.199-1.537-1.12l1.748-5.366a.998.998 0 00-.364-1.12l-4.575-3.314c-.785-.57-.383-1.81.587-1.81h5.661a.999.999 0 00.95-.69l1.752-5.375z" fill="#070707"/><path d="M152.474 3.213c.3-.92 1.601-.92 1.901 0l1.751 5.374a1 1 0 00.951.69h5.661c.969 0 1.372 1.242.587 1.81l-4.575 3.315a.998.998 0 00-.364 1.12l1.748 5.366c.3.921-.753 1.688-1.537 1.12l-4.586-3.322a1 1 0 00-1.173 0l-4.586 3.322c-.784.568-1.837-.199-1.537-1.12l1.748-5.366a.998.998 0 00-.364-1.12l-4.575-3.314c-.785-.57-.382-1.81.587-1.81h5.661c.433 0 .816-.279.951-.69l1.751-5.375z" fill="#E5E5E5"/></svg>