<?xml version="1.0" encoding="UTF-8"?>
<svg xmlns="http://www.w3.org/2000/svg" xmlns:xlink="http://www.w3.org/1999/xlink" width="40pt" height="40pt" viewBox="0 0 40 40" version="1.1">
<g id="surface1">
<path style=" stroke:none;fill-rule:evenodd;fill:rgb(0%,0%,0%);fill-opacity:1;" d="M 0 0 L 0 40 L 40 40 L 40 0 Z M 29.988281 22.128906 C 30.90625 23.027344 31.875 23.867188 32.699219 24.859375 C 33.0625 25.296875 33.410156 25.75 33.671875 26.253906 C 34.042969 26.980469 33.707031 27.777344 33.058594 27.820312 L 29.023438 27.820312 C 27.984375 27.90625 27.152344 27.484375 26.453125 26.773438 C 25.898438 26.207031 25.378906 25.601562 24.839844 25.011719 C 24.621094 24.773438 24.390625 24.546875 24.117188 24.367188 C 23.566406 24.007812 23.085938 24.117188 22.773438 24.691406 C 22.453125 25.277344 22.378906 25.925781 22.347656 26.574219 C 22.304688 27.527344 22.015625 27.773438 21.0625 27.820312 C 19.023438 27.914062 17.089844 27.605469 15.292969 26.578125 C 13.703125 25.671875 12.476562 24.390625 11.40625 22.941406 C 9.324219 20.117188 7.726562 17.015625 6.292969 13.828125 C 5.96875 13.109375 6.207031 12.722656 6.996094 12.710938 C 8.316406 12.683594 9.632812 12.6875 10.949219 12.707031 C 11.484375 12.71875 11.839844 13.023438 12.042969 13.527344 C 12.757812 15.277344 13.628906 16.945312 14.71875 18.488281 C 15.011719 18.902344 15.308594 19.308594 15.730469 19.601562 C 16.199219 19.921875 16.554688 19.816406 16.777344 19.292969 C 16.917969 18.960938 16.976562 18.609375 17.007812 18.253906 C 17.113281 17.035156 17.125 15.820312 16.945312 14.605469 C 16.832031 13.847656 16.402344 13.359375 15.648438 13.214844 C 15.261719 13.140625 15.320312 13 15.507812 12.78125 C 15.832031 12.402344 16.136719 12.164062 16.746094 12.164062 L 21.304688 12.164062 C 22.023438 12.304688 22.183594 12.628906 22.28125 13.351562 L 22.285156 18.414062 C 22.277344 18.695312 22.425781 19.523438 22.925781 19.707031 C 23.328125 19.839844 23.597656 19.519531 23.839844 19.261719 C 24.929688 18.105469 25.707031 16.734375 26.40625 15.316406 C 26.710938 14.695312 26.980469 14.046875 27.238281 13.398438 C 27.429688 12.917969 27.726562 12.683594 28.265625 12.691406 L 32.65625 12.699219 C 32.785156 12.699219 32.917969 12.699219 33.046875 12.71875 C 33.785156 12.847656 33.984375 13.164062 33.757812 13.886719 C 33.398438 15.019531 32.695312 15.964844 32.011719 16.910156 C 31.28125 17.925781 30.5 18.902344 29.769531 19.921875 C 29.105469 20.851562 29.160156 21.320312 29.988281 22.128906 Z M 29.988281 22.128906 "/>
</g>
</svg>
