<svg xmlns="http://www.w3.org/2000/svg" width="40pt" height="40pt" viewBox="0 0 40 40"><path d="M0 0v40h40V0zm29.988 22.129c.918.898 1.887 1.738 2.711 2.73.364.438.711.891.973 1.395.371.726.035 1.523-.613 1.566h-4.036c-1.039.086-1.87-.336-2.57-1.047-.555-.566-1.074-1.171-1.613-1.761a3.916 3.916 0 00-.723-.645c-.55-.36-1.031-.25-1.344.324-.32.586-.394 1.235-.425 1.883-.043.953-.332 1.2-1.285 1.246-2.04.094-3.973-.215-5.77-1.242-1.59-.906-2.816-2.187-3.887-3.637-2.082-2.824-3.68-5.925-5.113-9.113-.324-.719-.086-1.105.703-1.117 1.32-.027 2.637-.024 3.953-.004.535.012.89.316 1.094.82.715 1.75 1.586 3.418 2.676 4.961.293.414.59.82 1.011 1.114.47.32.825.214 1.047-.309.141-.332.2-.684.23-1.04.106-1.218.118-2.433-.062-3.648-.113-.757-.543-1.246-1.297-1.39-.386-.074-.328-.215-.14-.434.324-.379.629-.617 1.238-.617h4.559c.718.14.879.465.976 1.188l.004 5.062c-.008.281.14 1.11.64 1.293.403.133.673-.187.915-.445 1.09-1.157 1.867-2.528 2.566-3.946.305-.62.574-1.27.832-1.918.192-.48.489-.714 1.028-.707l4.39.008c.13 0 .262 0 .39.02.74.129.938.445.712 1.168-.36 1.133-1.063 2.078-1.746 3.023-.73 1.016-1.512 1.992-2.242 3.012-.665.93-.61 1.398.218 2.207zm0 0" fill-rule="evenodd"/></svg>