<svg xmlns="http://www.w3.org/2000/svg" width="40pt" height="40pt" viewBox="0 0 40 40"><path d="M20.242 32.5c5.785 0 3.723-3.664 4.168-4.715-.004-.789-.012-1.547.016-2.004.367.102 1.23.54 3.015 2.278 2.762 2.78 3.465 4.441 5.696 4.441h4.101c1.297 0 1.977-.54 2.313-.988.328-.438.648-1.203.297-2.399-.914-2.875-6.25-7.836-6.582-8.36.05-.093.129-.222.172-.288h-.004c1.054-1.395 5.074-7.418 5.664-9.828.004 0 .004-.008.004-.012.32-1.102.027-1.813-.278-2.215-.457-.605-1.183-.91-2.164-.91h-4.1c-1.375 0-2.414.691-2.942 1.953-.883 2.242-3.36 6.852-5.215 8.485-.058-2.313-.02-4.079.012-5.391.059-2.559.254-5.047-2.402-5.047h-6.446c-1.664 0-3.257 1.816-1.53 3.973 1.503 1.89.538 2.945.862 8.187-1.265-1.36-3.52-5.027-5.113-9.715C9.34 8.675 8.665 7.5 6.758 7.5H2.656C.992 7.5 0 8.41 0 9.926 0 13.336 7.547 32.5 20.242 32.5zM6.758 10c.363 0 .398 0 .668.762 1.633 4.804 5.289 11.918 7.965 11.918 2.007 0 2.007-2.059 2.007-2.836v-6.168c-.113-2.043-.855-3.059-1.343-3.676l5.847.008c.004.027-.035 6.824.016 8.469 0 2.34 1.855 3.68 4.754.746 3.058-3.45 5.176-8.61 5.262-8.82.125-.301.23-.403.625-.403h4.117c0 .004 0 .012-.004.016-.375 1.75-4.074 7.324-5.313 9.058l-.058.082c-.543.89-.988 1.875.074 3.258h.004c.098.117.348.39.715.77 1.14 1.175 5.05 5.199 5.394 6.8-.226.036-.476.008-4.351.016-.828 0-1.473-1.23-3.934-3.715-2.215-2.152-3.648-3.035-4.957-3.035-2.543 0-2.355 2.063-2.332 4.559.008 2.703-.008 1.847.008 2.015-.149.059-.57.176-1.68.176C9.668 30 2.782 13.215 2.516 10.008c.09-.008 1.351-.004 4.242-.008zm0 0"/></svg>