<svg xmlns="http://www.w3.org/2000/svg" width="40pt" height="40pt" viewBox="0 0 40 40"><g fill-rule="evenodd"><path d="M0 0v40h40V0zm33.363 26.547c-.34 1.473-1.547 2.558-2.996 2.723-3.43.382-6.906.382-10.367.382-3.46 0-6.938 0-10.371-.382-1.45-.165-2.652-1.25-2.992-2.723-.485-2.098-.485-4.387-.485-6.547s.008-4.45.489-6.547c.34-1.473 1.543-2.558 2.992-2.719 3.433-.386 6.91-.386 10.37-.386 3.462 0 6.938 0 10.372.386 1.45.16 2.652 1.246 2.992 2.72.485 2.097.48 4.386.48 6.546s-.003 4.45-.484 6.547zm0 0"/><path d="M16.426 24.297c2.941-1.524 5.86-3.035 8.804-4.563-2.953-1.543-5.87-3.062-8.804-4.593zm0 0"/></g></svg>